<svg width="116" height="116" viewBox="0 0 116 116" fill="none" xmlns="http://www.w3.org/2000/svg">
<mask id="mask0_173_2" style="mask-type:luminance" maskUnits="userSpaceOnUse" x="0" y="0" width="116" height="116">
<path d="M115.961 0.713196H0.960602V115.713H115.961V0.713196Z" fill="white"/>
</mask>
<g mask="url(#mask0_173_2)">
<path d="M43.5227 39.2028L41.6708 42.4104L39.8189 39.2028H43.5227Z" fill="#645BE7"/>
<path d="M41.6709 42.4105L43.5228 39.2028L45.3748 42.4105H41.6709Z" fill="#645BE7"/>
<path d="M39.8189 39.2028L41.6708 35.9951L43.5228 39.2028H39.8189Z" fill="#645BE7"/>
<path d="M37.967 42.4105L39.8189 39.2028L41.6708 42.4105H37.967Z" fill="#645BE7"/>
<path d="M47.2265 19.957L45.3746 23.1647L43.5227 19.957H47.2265Z" fill="#645BE7"/>
<path d="M45.3746 23.1647L47.2265 19.9571L49.0785 23.1647H45.3746Z" fill="#645BE7"/>
<path d="M43.5227 19.957L45.3746 16.7494L47.2265 19.957H43.5227Z" fill="#645BE7"/>
<path d="M41.6708 23.1647L43.5227 19.9571L45.3746 23.1647H41.6708Z" fill="#645BE7"/>
<path d="M54.6342 32.7875L52.7823 35.9952L50.9304 32.7875H54.6342Z" fill="#645BE7"/>
<path d="M52.7823 35.9952L54.6342 32.7876L56.4862 35.9952H52.7823Z" fill="#645BE7"/>
<path d="M50.9303 32.7875L52.7823 29.5799L54.6342 32.7875H50.9303Z" fill="#645BE7"/>
<path d="M49.0784 35.9952L50.9303 32.7876L52.7823 35.9952H49.0784Z" fill="#645BE7"/>
<path d="M58.3381 39.2028L56.4861 42.4104L54.6342 39.2028H58.3381Z" fill="#645BE7"/>
<path d="M56.4861 42.4105L58.3381 39.2029L60.19 42.4105H56.4861Z" fill="#645BE7"/>
<path d="M54.6342 39.2029L56.4861 35.9953L58.3381 39.2029H54.6342Z" fill="#645BE7"/>
<path d="M52.7823 42.4105L54.6342 39.2029L56.4862 42.4105H52.7823Z" fill="#645BE7"/>
<path d="M50.9308 26.3721L52.7827 23.1644L54.6346 26.3721H50.9308Z" fill="#645BE7"/>
<path d="M52.7827 23.1644L50.9307 26.3721L49.0788 23.1644H52.7827Z" fill="#645BE7"/>
<path d="M54.6346 26.3721L52.7827 29.5798L50.9308 26.3721H54.6346Z" fill="#645BE7"/>
<path d="M56.4865 23.1644L54.6346 26.3721L52.7827 23.1644H56.4865Z" fill="#645BE7"/>
<path d="M47.2267 19.9569L49.0787 16.7493L50.9306 19.9569H47.2267Z" fill="#645BE7"/>
<path d="M49.0787 16.7493L47.2267 19.9569L45.3748 16.7493H49.0787Z" fill="#645BE7"/>
<path d="M50.9306 19.957L49.0787 23.1646L47.2268 19.957H50.9306Z" fill="#645BE7"/>
<path d="M52.7825 16.7493L50.9306 19.9569L49.0787 16.7493H52.7825Z" fill="#645BE7"/>
<path d="M54.6345 32.7874L56.4864 29.5797L58.3383 32.7874H54.6345Z" fill="#645BE7"/>
<path d="M56.4864 29.5797L54.6344 32.7873L52.7825 29.5797H56.4864Z" fill="#645BE7"/>
<path d="M58.3383 32.7875L56.4864 35.9951L54.6345 32.7875H58.3383Z" fill="#645BE7"/>
<path d="M60.1902 29.5797L58.3383 32.7873L56.4864 29.5797H60.1902Z" fill="#645BE7"/>
<path d="M50.9305 26.3722L49.0786 29.5798L47.2266 26.3722H50.9305Z" fill="#645BE7"/>
<path d="M49.0786 29.5799L50.9305 26.3723L52.7824 29.5799H49.0786Z" fill="#645BE7"/>
<path d="M47.2267 26.3722L49.0786 23.1646L50.9305 26.3722H47.2267Z" fill="#645BE7"/>
<path d="M45.3747 29.5799L47.2266 26.3723L49.0786 29.5799H45.3747Z" fill="#645BE7"/>
<path d="M50.9305 39.2028L49.0786 42.4104L47.2266 39.2028H50.9305Z" fill="#645BE7"/>
<path d="M49.0786 42.4105L50.9305 39.2028L52.7824 42.4105H49.0786Z" fill="#645BE7"/>
<path d="M47.2267 39.2028L49.0786 35.9951L50.9305 39.2028H47.2267Z" fill="#645BE7"/>
<path d="M45.3747 42.4105L47.2266 39.2028L49.0786 42.4105H45.3747Z" fill="#645BE7"/>
<path d="M47.2266 32.7875L45.3747 35.9951L43.5228 32.7875H47.2266Z" fill="#645BE7"/>
<path d="M45.3747 35.9951L47.2266 32.7875L49.0786 35.9951H45.3747Z" fill="#645BE7"/>
<path d="M43.5228 32.7874L45.3747 29.5798L47.2267 32.7874H43.5228Z" fill="#645BE7"/>
<path d="M41.6709 35.9951L43.5228 32.7875L45.3748 35.9951H41.6709Z" fill="#645BE7"/>
<path d="M43.5228 26.3722L45.3747 23.1646L47.2266 26.3722H43.5228Z" fill="#645BE7"/>
<path d="M45.3747 23.1645L43.5228 26.3722L41.6709 23.1645H45.3747Z" fill="#645BE7"/>
<path d="M47.2266 26.3722L45.3747 29.5798L43.5228 26.3722H47.2266Z" fill="#645BE7"/>
<path d="M49.0786 23.1645L47.2266 26.3722L45.3747 23.1645H49.0786Z" fill="#645BE7"/>
<path d="M50.9305 39.2028L52.7824 35.9951L54.6344 39.2028H50.9305Z" fill="#645BE7"/>
<path d="M52.7824 35.9951L50.9305 39.2027L49.0786 35.9951H52.7824Z" fill="#645BE7"/>
<path d="M54.6343 39.2028L52.7824 42.4104L50.9305 39.2028H54.6343Z" fill="#645BE7"/>
<path d="M56.4863 35.9951L54.6343 39.2027L52.7824 35.9951H56.4863Z" fill="#645BE7"/>
<path d="M67.5979 29.5795L63.8941 35.9954L60.1902 29.58L67.5979 29.5795Z" fill="#645BE7"/>
<path d="M75.0057 29.5795L71.302 35.9954L67.5981 29.58L75.0057 29.5795Z" fill="#645BE7"/>
<path d="M78.7091 35.9939L75.0054 42.4098L71.3015 35.9944L78.7091 35.9939Z" fill="#645BE7"/>
<path d="M86.1164 35.9956L82.4127 42.4115L78.7088 35.9961L86.1164 35.9956Z" fill="#645BE7"/>
<path d="M89.8208 42.4119L86.1171 48.8278L82.4132 42.4124L89.8208 42.4119Z" fill="#645BE7"/>
<path d="M86.1172 48.8245L82.4135 55.2404L78.7096 48.825L86.1172 48.8245Z" fill="#645BE7"/>
<path d="M100.931 35.9954L97.2273 42.4113L93.5234 35.9959L100.931 35.9954Z" fill="#645BE7"/>
<path d="M104.639 29.5766L100.935 35.9925L97.2312 29.5771L104.639 29.5766Z" fill="#645BE7"/>
<path d="M93.5274 35.9976L97.2311 29.5817L100.935 35.9971L93.5274 35.9976Z" fill="#645BE7"/>
<path d="M82.4131 29.5798L78.7094 35.9957L75.0054 29.5803L82.4131 29.5798Z" fill="#645BE7"/>
<path d="M89.8204 29.5801L86.1167 35.996L82.4128 29.5807L89.8204 29.5801Z" fill="#645BE7"/>
<path d="M99.0817 13.5428L95.378 19.9587L91.6741 13.5434L99.0817 13.5428Z" fill="#645BE7"/>
<path d="M75.006 3.92047L71.3022 10.3364L67.5983 3.92099L75.006 3.92047Z" fill="#645BE7"/>
<path d="M67.5981 42.4103L71.3018 35.9944L75.0057 42.4098L67.5981 42.4103Z" fill="#645BE7"/>
<path d="M75.0057 42.4103L78.7094 35.9944L82.4133 42.4098L75.0057 42.4103Z" fill="#645BE7"/>
<path d="M71.3018 35.9949L75.0055 29.579L78.7094 35.9944L71.3018 35.9949Z" fill="#645BE7"/>
<path d="M63.8942 35.9949L67.5979 29.579L71.3018 35.9944L63.8942 35.9949Z" fill="#645BE7"/>
<path d="M82.4142 29.5822L86.1179 23.1663L89.8218 29.5816L82.4142 29.5822Z" fill="#645BE7"/>
<path d="M87.9704 19.9593L91.6741 13.5434L95.378 19.9588L87.9704 19.9593Z" fill="#645BE7"/>
<path d="M63.8947 10.3369L67.5984 3.92102L71.3023 10.3364L63.8947 10.3369Z" fill="#645BE7"/>
<path d="M78.7103 48.824L82.414 42.4081L86.1179 48.8235L78.7103 48.824Z" fill="#645BE7"/>
<path d="M58.3377 39.2024L60.1897 35.9948L62.0416 39.2024H58.3377Z" fill="#645BE7"/>
<path d="M60.1897 35.9947L58.3377 39.2024L56.4858 35.9947H60.1897Z" fill="#645BE7"/>
<path d="M62.0416 39.2024L60.1896 42.41L58.3377 39.2024H62.0416Z" fill="#645BE7"/>
<path d="M63.8935 35.9947L62.0416 39.2024L60.1897 35.9947H63.8935Z" fill="#645BE7"/>
<path d="M65.7462 39.2026L67.5982 35.995L69.4501 39.2026H65.7462Z" fill="#645BE7"/>
<path d="M67.5981 35.9949L65.7462 39.2026L63.8943 35.9949H67.5981Z" fill="#645BE7"/>
<path d="M69.45 39.2026L67.5981 42.4103L65.7462 39.2026H69.45Z" fill="#645BE7"/>
<path d="M71.3019 35.9949L69.45 39.2026L67.5981 35.9949H71.3019Z" fill="#645BE7"/>
<path d="M62.0415 19.957L60.1895 23.1646L58.3376 19.957H62.0415Z" fill="#645BE7"/>
<path d="M60.1895 23.1646L62.0415 19.9569L63.8934 23.1646H60.1895Z" fill="#645BE7"/>
<path d="M58.3376 19.9569L60.1895 16.7492L62.0414 19.9569H58.3376Z" fill="#645BE7"/>
<path d="M56.4857 23.1646L58.3376 19.9569L60.1895 23.1646H56.4857Z" fill="#645BE7"/>
<path d="M65.7455 13.5432L67.5974 10.3356L69.4493 13.5432H65.7455Z" fill="#645BE7"/>
<path d="M67.5974 10.3356L65.7455 13.5433L63.8935 10.3356H67.5974Z" fill="#645BE7"/>
<path d="M69.4493 13.5433L67.5974 16.7509L65.7455 13.5433H69.4493Z" fill="#645BE7"/>
<path d="M71.3012 10.3356L69.4493 13.5433L67.5974 10.3356H71.3012Z" fill="#645BE7"/>
<path d="M39.8189 19.957L41.6708 16.7494L43.5227 19.957H39.8189Z" fill="#645BE7"/>
<path d="M41.6708 16.7493L39.8189 19.957L37.9669 16.7493H41.6708Z" fill="#645BE7"/>
<path d="M43.5227 19.957L41.6708 23.1647L39.8189 19.957H43.5227Z" fill="#645BE7"/>
<path d="M45.3747 16.7493L43.5228 19.957L41.6708 16.7493H45.3747Z" fill="#645BE7"/>
<path d="M39.8187 19.9571L37.9668 23.1648L36.1149 19.9571H39.8187Z" fill="#645BE7"/>
<path d="M36.1149 19.9571L37.9668 16.7495L39.8188 19.9571H36.1149Z" fill="#645BE7"/>
<path d="M37.9668 23.1647L36.1149 26.3723L34.263 23.1647H37.9668Z" fill="#645BE7"/>
<path d="M34.263 23.1647L36.1149 19.9571L37.9668 23.1647H34.263Z" fill="#645BE7"/>
<path d="M36.1149 26.3724L34.263 29.58L32.411 26.3724H36.1149Z" fill="#645BE7"/>
<path d="M32.4111 26.3723L34.263 23.1647L36.1149 26.3723H32.4111Z" fill="#645BE7"/>
<path d="M34.263 29.5799L32.4111 32.7875L30.5592 29.5799H34.263Z" fill="#645BE7"/>
<path d="M30.5592 29.58L32.4111 26.3723L34.263 29.58H30.5592Z" fill="#645BE7"/>
<path d="M32.4111 32.7876L30.5592 35.9952L28.7073 32.7876H32.4111Z" fill="#645BE7"/>
<path d="M28.7072 32.7876L30.5591 29.58L32.4111 32.7876H28.7072Z" fill="#645BE7"/>
<path d="M30.5591 35.9951L28.7072 39.2027L26.8553 35.9951H30.5591Z" fill="#645BE7"/>
<path d="M26.8553 35.9952L28.7072 32.7876L30.5592 35.9952H26.8553Z" fill="#645BE7"/>
<path d="M28.7073 39.2028L26.8554 42.4104L25.0035 39.2028H28.7073Z" fill="#645BE7"/>
<path d="M25.0034 39.2028L26.8554 35.9951L28.7073 39.2028H25.0034Z" fill="#645BE7"/>
<path d="M47.2266 32.7875L49.0786 29.5799L50.9305 32.7875H47.2266Z" fill="#645BE7"/>
<path d="M49.0786 29.5798L47.2266 32.7875L45.3747 29.5798H49.0786Z" fill="#645BE7"/>
<path d="M50.9305 32.7875L49.0785 35.9952L47.2266 32.7875H50.9305Z" fill="#645BE7"/>
<path d="M52.7824 29.5798L50.9305 32.7875L49.0786 29.5798H52.7824Z" fill="#645BE7"/>
<path d="M43.5228 39.2031L45.3747 35.9955L47.2266 39.2031H43.5228Z" fill="#645BE7"/>
<path d="M45.3747 35.9955L43.5228 39.2031L41.6708 35.9955H45.3747Z" fill="#645BE7"/>
<path d="M47.2266 39.2031L45.3746 42.4107L43.5227 39.2031H47.2266Z" fill="#645BE7"/>
<path d="M49.0785 35.9955L47.2266 39.2031L45.3747 35.9955H49.0785Z" fill="#645BE7"/>
<path d="M58.3384 26.3722L56.4864 29.5798L54.6345 26.3722H58.3384Z" fill="#645BE7"/>
<path d="M56.4864 29.5798L58.3384 26.3722L60.1903 29.5798H56.4864Z" fill="#645BE7"/>
<path d="M54.6345 26.3721L56.4865 23.1644L58.3384 26.3721H54.6345Z" fill="#645BE7"/>
<path d="M52.7826 29.5798L54.6346 26.3722L56.4865 29.5798H52.7826Z" fill="#645BE7"/>
<path d="M62.0422 32.7875L60.1903 35.9951L58.3384 32.7875H62.0422Z" fill="#645BE7"/>
<path d="M60.1903 35.9951L62.0422 32.7874L63.8941 35.9951H60.1903Z" fill="#645BE7"/>
<path d="M58.3384 32.7874L60.1903 29.5797L62.0422 32.7874H58.3384Z" fill="#645BE7"/>
<path d="M56.4864 35.9951L58.3384 32.7874L60.1903 35.9951H56.4864Z" fill="#645BE7"/>
<path d="M65.7458 39.2021L63.8939 42.4097L62.0419 39.2021H65.7458Z" fill="#645BE7"/>
<path d="M63.8939 42.4097L65.7458 39.2021L67.5977 42.4097H63.8939Z" fill="#645BE7"/>
<path d="M62.042 39.2022L63.8939 35.9945L65.7458 39.2022H62.042Z" fill="#645BE7"/>
<path d="M60.1901 42.4097L62.042 39.2021L63.8939 42.4097H60.1901Z" fill="#645BE7"/>
<path d="M34.2631 80.9005H37.9669L36.115 84.1081L34.2631 80.9005Z" fill="#645BE7"/>
<path d="M37.9669 80.9005H34.263L36.115 77.6929L37.9669 80.9005Z" fill="#645BE7"/>
<path d="M36.115 84.1081H32.4111L34.263 80.9005L36.115 84.1081Z" fill="#645BE7"/>
<path d="M39.8188 84.1081H36.115L37.9669 80.9005L39.8188 84.1081Z" fill="#645BE7"/>
<path d="M15.7439 87.3157H19.4477L17.5958 90.5234L15.7439 87.3157Z" fill="#645BE7"/>
<path d="M19.4477 87.3157H15.7439L17.5958 84.1081L19.4477 87.3157Z" fill="#645BE7"/>
<path d="M17.5958 90.5234H13.8919L15.7439 87.3157L17.5958 90.5234Z" fill="#645BE7"/>
<path d="M21.2996 90.5234H17.5958L19.4477 87.3157L21.2996 90.5234Z" fill="#645BE7"/>
<path d="M23.1516 74.4852H26.8554L25.0035 77.6929L23.1516 74.4852Z" fill="#645BE7"/>
<path d="M26.8555 74.4853H23.1516L25.0035 71.2777L26.8555 74.4853Z" fill="#645BE7"/>
<path d="M25.0036 77.6929H21.2997L23.1516 74.4853L25.0036 77.6929Z" fill="#645BE7"/>
<path d="M28.7074 77.6929H25.0035L26.8554 74.4852L28.7074 77.6929Z" fill="#645BE7"/>
<path d="M26.8555 68.0701H30.5593L28.7074 71.2778L26.8555 68.0701Z" fill="#645BE7"/>
<path d="M30.5592 68.0701H26.8554L28.7073 64.8625L30.5592 68.0701Z" fill="#645BE7"/>
<path d="M28.7074 71.2778H25.0035L26.8554 68.0701L28.7074 71.2778Z" fill="#645BE7"/>
<path d="M32.4112 71.2778H28.7074L30.5593 68.0701L32.4112 71.2778Z" fill="#645BE7"/>
<path d="M19.4473 80.9004H15.7434L17.5954 77.6928L19.4473 80.9004Z" fill="#645BE7"/>
<path d="M15.7434 80.9003H19.4473L17.5953 84.1079L15.7434 80.9003Z" fill="#645BE7"/>
<path d="M17.5953 77.6928H21.2992L19.4472 80.9004L17.5953 77.6928Z" fill="#645BE7"/>
<path d="M13.8915 77.6928H17.5953L15.7434 80.9004L13.8915 77.6928Z" fill="#645BE7"/>
<path d="M15.7436 87.3157H12.0397L13.8917 84.108L15.7436 87.3157Z" fill="#645BE7"/>
<path d="M12.0397 87.3156H15.7435L13.8916 90.5232L12.0397 87.3156Z" fill="#645BE7"/>
<path d="M13.8916 84.108H17.5955L15.7436 87.3157L13.8916 84.108Z" fill="#645BE7"/>
<path d="M10.1878 84.108H13.8916L12.0397 87.3157L10.1878 84.108Z" fill="#645BE7"/>
<path d="M23.1513 74.4852H19.4475L21.2994 71.2776L23.1513 74.4852Z" fill="#645BE7"/>
<path d="M19.4474 74.4852H23.1513L21.2994 77.6928L19.4474 74.4852Z" fill="#645BE7"/>
<path d="M21.2993 71.2776H25.0032L23.1513 74.4852L21.2993 71.2776Z" fill="#645BE7"/>
<path d="M17.5955 71.2776H21.2994L19.4474 74.4852L17.5955 71.2776Z" fill="#645BE7"/>
<path d="M19.4476 80.9005H23.1515L21.2995 84.1081L19.4476 80.9005Z" fill="#645BE7"/>
<path d="M23.1515 80.9005H19.4477L21.2996 77.6929L23.1515 80.9005Z" fill="#645BE7"/>
<path d="M21.2995 84.1081H17.5957L19.4476 80.9005L21.2995 84.1081Z" fill="#645BE7"/>
<path d="M25.0034 84.1081H21.2996L23.1515 80.9005L25.0034 84.1081Z" fill="#645BE7"/>
<path d="M30.5591 74.4852H34.2629L32.411 77.6929L30.5591 74.4852Z" fill="#645BE7"/>
<path d="M34.263 74.4853H30.5592L32.4111 71.2777L34.263 74.4853Z" fill="#645BE7"/>
<path d="M32.4111 77.6929H28.7072L30.5592 74.4853L32.4111 77.6929Z" fill="#645BE7"/>
<path d="M36.1149 77.6929H32.411L34.263 74.4852L36.1149 77.6929Z" fill="#645BE7"/>
<path d="M26.8553 80.9005H30.5592L28.7072 84.1081L26.8553 80.9005Z" fill="#645BE7"/>
<path d="M30.5592 80.9005H26.8553L28.7072 77.6929L30.5592 80.9005Z" fill="#645BE7"/>
<path d="M28.7072 84.1081H25.0033L26.8552 80.9005L28.7072 84.1081Z" fill="#645BE7"/>
<path d="M32.4111 84.1081H28.7072L30.5592 80.9005L32.4111 84.1081Z" fill="#645BE7"/>
<path d="M23.1515 87.3157H19.4476L21.2995 84.1081L23.1515 87.3157Z" fill="#645BE7"/>
<path d="M19.4475 87.3157H23.1514L21.2995 90.5234L19.4475 87.3157Z" fill="#645BE7"/>
<path d="M21.2995 84.1081H25.0033L23.1514 87.3157L21.2995 84.1081Z" fill="#645BE7"/>
<path d="M17.5956 84.1081H21.2995L19.4476 87.3157L17.5956 84.1081Z" fill="#645BE7"/>
<path d="M30.5592 74.4853H26.8553L28.7072 71.2777L30.5592 74.4853Z" fill="#645BE7"/>
<path d="M26.8553 74.4852H30.5592L28.7072 77.6929L26.8553 74.4852Z" fill="#645BE7"/>
<path d="M28.7072 71.2777H32.4111L30.5591 74.4853L28.7072 71.2777Z" fill="#645BE7"/>
<path d="M25.0034 71.2777H28.7073L26.8553 74.4853L25.0034 71.2777Z" fill="#645BE7"/>
<path d="M13.8914 64.8624L21.2996 64.862L17.5957 71.2774L13.8914 64.8624Z" fill="#645BE7"/>
<path d="M10.1875 58.447L17.5957 58.4465L13.8918 64.8619L10.1875 58.447Z" fill="#645BE7"/>
<path d="M13.8909 52.0325L21.2991 52.032L17.5952 58.4474L13.8909 52.0325Z" fill="#645BE7"/>
<path d="M10.1886 45.6169L17.5968 45.6165L13.8929 52.0318L10.1886 45.6169Z" fill="#645BE7"/>
<path d="M13.8931 39.2007L21.3013 39.2003L17.5974 45.6156L13.8931 39.2007Z" fill="#645BE7"/>
<path d="M21.2984 39.2017L28.7065 39.2012L25.0026 45.6166L21.2984 39.2017Z" fill="#645BE7"/>
<path d="M6.48522 39.2026L13.8934 39.2021L10.1895 45.6175L6.48522 39.2026Z" fill="#645BE7"/>
<path d="M6.48411 52.0321L13.8923 52.0316L10.1884 58.447L6.48411 52.0321Z" fill="#645BE7"/>
<path d="M2.78077 45.6169L10.1889 45.6165L6.48503 52.0318L2.78077 45.6169Z" fill="#645BE7"/>
<path d="M25.003 58.4468L17.5949 58.4473L21.2988 52.0319L25.003 58.4468Z" fill="#645BE7"/>
<path d="M21.2994 52.0316L13.8912 52.032L17.5951 45.6167L21.2994 52.0316Z" fill="#645BE7"/>
<path d="M17.5954 58.4471L10.1873 58.4475L13.8912 52.0321L17.5954 58.4471Z" fill="#645BE7"/>
<path d="M21.2991 64.8623L13.8909 64.8627L17.5949 58.4474L21.2991 64.8623Z" fill="#645BE7"/>
<path d="M13.8917 52.0318L6.48357 52.0322L10.1875 45.6168L13.8917 52.0318Z" fill="#645BE7"/>
<path d="M17.5962 45.6156L10.188 45.616L13.892 39.2007L17.5962 45.6156Z" fill="#645BE7"/>
<path d="M25.0015 45.6165L17.5933 45.6169L21.2972 39.2016L25.0015 45.6165Z" fill="#645BE7"/>
<path d="M10.1883 45.6175L2.78014 45.6179L6.48406 39.2025L10.1883 45.6175Z" fill="#645BE7"/>
<path d="M26.8551 68.0705H23.1512L25.0032 64.8629L26.8551 68.0705Z" fill="#645BE7"/>
<path d="M23.1513 68.0705H26.8551L25.0032 71.2781L23.1513 68.0705Z" fill="#645BE7"/>
<path d="M25.0032 64.8629H28.7071L26.8552 68.0705L25.0032 64.8629Z" fill="#645BE7"/>
<path d="M21.2993 64.8629H25.0032L23.1512 68.0705L21.2993 64.8629Z" fill="#645BE7"/>
<path d="M23.1511 61.6545H19.4473L21.2992 58.4468L23.1511 61.6545Z" fill="#645BE7"/>
<path d="M19.4472 61.6545H23.1511L21.2992 64.8622L19.4472 61.6545Z" fill="#645BE7"/>
<path d="M21.2992 58.4468H25.003L23.1511 61.6545L21.2992 58.4468Z" fill="#645BE7"/>
<path d="M17.5953 58.4468H21.2992L19.4472 61.6545L17.5953 58.4468Z" fill="#645BE7"/>
<path d="M12.0397 80.9003H15.7435L13.8916 84.108L12.0397 80.9003Z" fill="#645BE7"/>
<path d="M15.7436 80.9004H12.0397L13.8916 77.6928L15.7436 80.9004Z" fill="#645BE7"/>
<path d="M13.8917 84.108H10.1878L12.0397 80.9003L13.8917 84.108Z" fill="#645BE7"/>
<path d="M17.5955 84.108H13.8916L15.7435 80.9003L17.5955 84.108Z" fill="#645BE7"/>
<path d="M19.4476 93.731H15.7437L17.5957 90.5233L19.4476 93.731Z" fill="#645BE7"/>
<path d="M15.7437 93.731H19.4476L17.5957 96.9386L15.7437 93.731Z" fill="#645BE7"/>
<path d="M17.5957 90.5233H21.2995L19.4476 93.731L17.5957 90.5233Z" fill="#645BE7"/>
<path d="M13.8918 90.5233H17.5957L15.7438 93.731L13.8918 90.5233Z" fill="#645BE7"/>
<path d="M19.4478 93.7311H23.1517L21.2997 96.9387L19.4478 93.7311Z" fill="#645BE7"/>
<path d="M21.2997 96.9387H17.5959L19.4478 93.7311L21.2997 96.9387Z" fill="#645BE7"/>
<path d="M23.1516 93.7311H26.8555L25.0036 96.9387L23.1516 93.7311Z" fill="#645BE7"/>
<path d="M25.0036 96.9387H21.2997L23.1516 93.7311L25.0036 96.9387Z" fill="#645BE7"/>
<path d="M26.8555 93.7311H30.5593L28.7074 96.9387L26.8555 93.7311Z" fill="#645BE7"/>
<path d="M28.7074 96.9387H25.0035L26.8555 93.7311L28.7074 96.9387Z" fill="#645BE7"/>
<path d="M30.5593 93.7311H34.2632L32.4112 96.9387L30.5593 93.7311Z" fill="#645BE7"/>
<path d="M32.4112 96.9387H28.7074L30.5593 93.7311L32.4112 96.9387Z" fill="#645BE7"/>
<path d="M34.2631 93.7311H37.967L36.1151 96.9387L34.2631 93.7311Z" fill="#645BE7"/>
<path d="M36.1151 96.9387H32.4112L34.2632 93.7311L36.1151 96.9387Z" fill="#645BE7"/>
<path d="M37.967 93.7311H41.6709L39.819 96.9387L37.967 93.7311Z" fill="#645BE7"/>
<path d="M39.8189 96.9387H36.1151L37.967 93.7311L39.8189 96.9387Z" fill="#645BE7"/>
<path d="M41.6708 93.7311H45.3746L43.5227 96.9387L41.6708 93.7311Z" fill="#645BE7"/>
<path d="M43.5228 96.9387H39.8189L41.6708 93.7311L43.5228 96.9387Z" fill="#645BE7"/>
<path d="M26.8552 80.9005H23.1514L25.0033 77.6929L26.8552 80.9005Z" fill="#645BE7"/>
<path d="M23.1514 80.9005H26.8552L25.0033 84.1081L23.1514 80.9005Z" fill="#645BE7"/>
<path d="M25.0034 77.6929H28.7072L26.8553 80.9005L25.0034 77.6929Z" fill="#645BE7"/>
<path d="M21.2995 77.6929H25.0033L23.1514 80.9005L21.2995 77.6929Z" fill="#645BE7"/>
<path d="M34.2633 80.9004H30.5595L32.4114 77.6928L34.2633 80.9004Z" fill="#645BE7"/>
<path d="M30.5594 80.9003H34.2633L32.4114 84.108L30.5594 80.9003Z" fill="#645BE7"/>
<path d="M32.4113 77.6928H36.1152L34.2633 80.9004L32.4113 77.6928Z" fill="#645BE7"/>
<path d="M28.7075 77.6928H32.4114L30.5594 80.9004L28.7075 77.6928Z" fill="#645BE7"/>
<path d="M15.7436 74.4852H19.4475L17.5955 77.6928L15.7436 74.4852Z" fill="#645BE7"/>
<path d="M19.4474 74.4852H15.7435L17.5955 71.2776L19.4474 74.4852Z" fill="#645BE7"/>
<path d="M17.5955 77.6928H13.8916L15.7436 74.4852L17.5955 77.6928Z" fill="#645BE7"/>
<path d="M21.2993 77.6928H17.5955L19.4474 74.4852L21.2993 77.6928Z" fill="#645BE7"/>
<path d="M19.4474 68.07H23.1513L21.2993 71.2776L19.4474 68.07Z" fill="#645BE7"/>
<path d="M23.1513 68.0698H19.4475L21.2994 64.8622L23.1513 68.0698Z" fill="#645BE7"/>
<path d="M21.2993 71.2776H17.5955L19.4474 68.07L21.2993 71.2776Z" fill="#645BE7"/>
<path d="M25.0032 71.2776H21.2994L23.1513 68.07L25.0032 71.2776Z" fill="#645BE7"/>
<path d="M23.151 61.6552H26.8549L25.0029 64.8628L23.151 61.6552Z" fill="#645BE7"/>
<path d="M26.8549 61.6551H23.151L25.0029 58.4475L26.8549 61.6551Z" fill="#645BE7"/>
<path d="M25.0029 64.8628H21.2991L23.151 61.6552L25.0029 64.8628Z" fill="#645BE7"/>
<path d="M28.7068 64.8628H25.0029L26.8548 61.6552L28.7068 64.8628Z" fill="#645BE7"/>
<path d="M75.0042 68.0713L73.1523 64.8637H76.8562L75.0042 68.0713Z" fill="#645BE7"/>
<path d="M73.1523 64.8636L75.0042 68.0712H71.3004L73.1523 64.8636Z" fill="#645BE7"/>
<path d="M76.8562 64.8636L78.7081 68.0712H75.0042L76.8562 64.8636Z" fill="#645BE7"/>
<path d="M75.0042 61.656L76.8562 64.8636H73.1523L75.0042 61.656Z" fill="#645BE7"/>
<path d="M89.8196 80.9017L87.9677 77.694H91.6715L89.8196 80.9017Z" fill="#645BE7"/>
<path d="M87.9677 77.694L89.8196 80.9017H86.1158L87.9677 77.694Z" fill="#645BE7"/>
<path d="M91.6716 77.694L93.5235 80.9017H89.8196L91.6716 77.694Z" fill="#645BE7"/>
<path d="M89.8196 74.4865L91.6715 77.6941H87.9677L89.8196 74.4865Z" fill="#645BE7"/>
<path d="M104.634 80.9017L102.783 77.694H106.486L104.634 80.9017Z" fill="#645BE7"/>
<path d="M102.783 77.694L104.634 80.9017H100.931L102.783 77.694Z" fill="#645BE7"/>
<path d="M106.486 77.694L108.338 80.9017H104.634L106.486 77.694Z" fill="#645BE7"/>
<path d="M104.634 74.4865L106.486 77.6941H102.783L104.634 74.4865Z" fill="#645BE7"/>
<path d="M75.0042 80.9017L73.1523 77.694H76.8562L75.0042 80.9017Z" fill="#645BE7"/>
<path d="M73.1523 77.694L75.0042 80.9017H71.3004L73.1523 77.694Z" fill="#645BE7"/>
<path d="M76.8562 77.694L78.7081 80.9017H75.0042L76.8562 77.694Z" fill="#645BE7"/>
<path d="M75.0042 74.4865L76.8562 77.6941H73.1523L75.0042 74.4865Z" fill="#645BE7"/>
<path d="M67.5965 80.9017L65.7446 77.694H69.4485L67.5965 80.9017Z" fill="#645BE7"/>
<path d="M65.7446 77.694L67.5965 80.9017H63.8926L65.7446 77.694Z" fill="#645BE7"/>
<path d="M69.4485 77.694L71.3004 80.9017H67.5965L69.4485 77.694Z" fill="#645BE7"/>
<path d="M67.5966 74.4865L69.4485 77.6941H65.7446L67.5966 74.4865Z" fill="#645BE7"/>
<path d="M75.0042 80.9021L76.8562 84.1097H73.1523L75.0042 80.9021Z" fill="#645BE7"/>
<path d="M76.8562 84.1097L75.0042 80.902H78.7081L76.8562 84.1097Z" fill="#645BE7"/>
<path d="M73.1523 84.1097L71.3004 80.902H75.0042L73.1523 84.1097Z" fill="#645BE7"/>
<path d="M75.0042 87.3173L73.1523 84.1097H76.8562L75.0042 87.3173Z" fill="#645BE7"/>
<path d="M82.4119 80.9018L80.56 77.6942H84.2639L82.4119 80.9018Z" fill="#645BE7"/>
<path d="M80.56 77.6942L82.4119 80.9018H78.7081L80.56 77.6942Z" fill="#645BE7"/>
<path d="M84.2638 77.6942L86.1158 80.9018H82.4119L84.2638 77.6942Z" fill="#645BE7"/>
<path d="M82.4119 74.4866L84.2639 77.6942H80.56L82.4119 74.4866Z" fill="#645BE7"/>
<path d="M71.3004 74.4866L69.4484 71.2789H73.1523L71.3004 74.4866Z" fill="#645BE7"/>
<path d="M69.4485 71.2789L71.3004 74.4866H67.5965L69.4485 71.2789Z" fill="#645BE7"/>
<path d="M73.1523 71.2789L75.0042 74.4866H71.3003L73.1523 71.2789Z" fill="#645BE7"/>
<path d="M71.3004 68.0714L73.1523 71.279H69.4485L71.3004 68.0714Z" fill="#645BE7"/>
<path d="M78.7081 74.4866L76.8562 71.2789H80.56L78.7081 74.4866Z" fill="#645BE7"/>
<path d="M76.8562 71.2789L78.7081 74.4866H75.0042L76.8562 71.2789Z" fill="#645BE7"/>
<path d="M80.56 71.2789L82.4119 74.4866H78.7081L80.56 71.2789Z" fill="#645BE7"/>
<path d="M78.7081 68.0714L80.56 71.279H76.8562L78.7081 68.0714Z" fill="#645BE7"/>
<path d="M86.1158 74.4866L87.9677 77.6942H84.2639L86.1158 74.4866Z" fill="#645BE7"/>
<path d="M87.9677 77.6942L86.1158 74.4866H89.8196L87.9677 77.6942Z" fill="#645BE7"/>
<path d="M84.2638 77.6942L82.4119 74.4866H86.1158L84.2638 77.6942Z" fill="#645BE7"/>
<path d="M86.1158 80.9018L84.2639 77.6942H87.9677L86.1158 80.9018Z" fill="#645BE7"/>
<path d="M71.3004 74.4866L73.1523 77.6942H69.4485L71.3004 74.4866Z" fill="#645BE7"/>
<path d="M73.1523 77.6942L71.3004 74.4866H75.0042L73.1523 77.6942Z" fill="#645BE7"/>
<path d="M69.4484 77.6942L67.5965 74.4866H71.3004L69.4484 77.6942Z" fill="#645BE7"/>
<path d="M71.3004 80.9018L69.4485 77.6942H73.1523L71.3004 80.9018Z" fill="#645BE7"/>
<path d="M67.5967 100.148L63.8923 93.7325H71.3001L67.5967 100.148Z" fill="#645BE7"/>
<path d="M60.1899 100.148L56.4854 93.7325H63.8933L60.1899 100.148Z" fill="#645BE7"/>
<path d="M56.4849 106.562L52.7805 100.147H60.1883L56.4849 106.562Z" fill="#645BE7"/>
<path d="M49.0761 106.562L45.3716 100.147H52.7794L49.0761 106.562Z" fill="#645BE7"/>
<path d="M45.3743 100.148L41.6699 93.7328H49.0777L45.3743 100.148Z" fill="#645BE7"/>
<path d="M52.7817 112.976L49.0773 106.561H56.4851L52.7817 112.976Z" fill="#645BE7"/>
<path d="M60.1889 112.977L56.4844 106.562H63.8923L60.1889 112.977Z" fill="#645BE7"/>
<path d="M60.1888 87.3174L63.8933 93.7328H56.4855L60.1888 87.3174Z" fill="#645BE7"/>
<path d="M56.4849 93.7325L60.1894 100.148H52.7816L56.4849 93.7325Z" fill="#645BE7"/>
<path d="M63.8928 93.7325L67.5973 100.148H60.1894L63.8928 93.7325Z" fill="#645BE7"/>
<path d="M67.5967 87.3174L71.3012 93.7328H63.8933L67.5967 87.3174Z" fill="#645BE7"/>
<path d="M67.5973 100.148L71.3018 106.563H63.8939L67.5973 100.148Z" fill="#645BE7"/>
<path d="M52.7799 100.148L56.4844 106.563H49.0766L52.7799 100.148Z" fill="#645BE7"/>
<path d="M49.0781 93.734L52.7826 100.149H45.3748L49.0781 93.734Z" fill="#645BE7"/>
<path d="M56.4856 106.562L60.19 112.977H52.7822L56.4856 106.562Z" fill="#645BE7"/>
<path d="M67.597 80.9017L69.449 84.1093H65.7451L67.597 80.9017Z" fill="#645BE7"/>
<path d="M69.449 84.1093L67.597 80.9017H71.3009L69.449 84.1093Z" fill="#645BE7"/>
<path d="M65.7452 84.1093L63.8933 80.9017H67.5971L65.7452 84.1093Z" fill="#645BE7"/>
<path d="M67.5971 87.3169L65.7452 84.1093H69.449L67.5971 87.3169Z" fill="#645BE7"/>
<path d="M63.8927 87.3176L65.7446 90.5252H62.0407L63.8927 87.3176Z" fill="#645BE7"/>
<path d="M65.7446 90.5251L63.8927 87.3175H67.5965L65.7446 90.5251Z" fill="#645BE7"/>
<path d="M62.0407 90.5251L60.1888 87.3175H63.8926L62.0407 90.5251Z" fill="#645BE7"/>
<path d="M63.8927 93.7327L62.0408 90.5251H65.7446L63.8927 93.7327Z" fill="#645BE7"/>
<path d="M78.7096 106.561L76.8577 103.353H80.5616L78.7096 106.561Z" fill="#645BE7"/>
<path d="M76.8577 103.353L78.7097 106.561H75.0058L76.8577 103.353Z" fill="#645BE7"/>
<path d="M80.5616 103.353L82.4135 106.561H78.7097L80.5616 103.353Z" fill="#645BE7"/>
<path d="M78.7097 100.146L80.5616 103.353H76.8578L78.7097 100.146Z" fill="#645BE7"/>
<path d="M93.5235 74.4866L95.3754 77.6942H91.6715L93.5235 74.4866Z" fill="#645BE7"/>
<path d="M95.3754 77.6942L93.5235 74.4866H97.2273L95.3754 77.6942Z" fill="#645BE7"/>
<path d="M91.6716 77.6942L89.8196 74.4866H93.5235L91.6716 77.6942Z" fill="#645BE7"/>
<path d="M93.5235 80.9018L91.6715 77.6942H95.3754L93.5235 80.9018Z" fill="#645BE7"/>
<path d="M93.5235 74.4863L91.6715 71.2787H95.3754L93.5235 74.4863Z" fill="#645BE7"/>
<path d="M95.3754 71.2786L97.2273 74.4863H93.5235L95.3754 71.2786Z" fill="#645BE7"/>
<path d="M91.6716 71.2786L89.8196 68.071H93.5235L91.6716 71.2786Z" fill="#645BE7"/>
<path d="M93.5235 68.071L95.3754 71.2787H91.6715L93.5235 68.071Z" fill="#645BE7"/>
<path d="M87.9677 64.8634L86.1158 61.6558H89.8196L87.9677 64.8634Z" fill="#645BE7"/>
<path d="M89.8196 61.6558L91.6715 64.8635H87.9677L89.8196 61.6558Z" fill="#645BE7"/>
<path d="M86.1158 61.6559L84.2638 58.4483H87.9677L86.1158 61.6559Z" fill="#645BE7"/>
<path d="M87.9677 58.4482L89.8196 61.6558H86.1158L87.9677 58.4482Z" fill="#645BE7"/>
<path d="M84.2677 58.4482L82.4157 55.2406H86.1196L84.2677 58.4482Z" fill="#645BE7"/>
<path d="M86.1196 55.2405L87.9715 58.4482H84.2677L86.1196 55.2405Z" fill="#645BE7"/>
<path d="M84.2653 52.0328L86.1172 55.2404H82.4134L84.2653 52.0328Z" fill="#645BE7"/>
<path d="M78.7081 74.4866L80.56 77.6942H76.8562L78.7081 74.4866Z" fill="#645BE7"/>
<path d="M80.56 77.6942L78.708 74.4866H82.4119L80.56 77.6942Z" fill="#645BE7"/>
<path d="M76.8562 77.6942L75.0042 74.4866H78.7081L76.8562 77.6942Z" fill="#645BE7"/>
<path d="M78.7081 80.9018L76.8562 77.6942H80.56L78.7081 80.9018Z" fill="#645BE7"/>
<path d="M75.004 68.0711L76.8559 71.2787H73.152L75.004 68.0711Z" fill="#645BE7"/>
<path d="M76.8559 71.2787L75.004 68.0711H78.7078L76.8559 71.2787Z" fill="#645BE7"/>
<path d="M73.1521 71.2787L71.3001 68.0711H75.004L73.1521 71.2787Z" fill="#645BE7"/>
<path d="M75.004 74.4863L73.1521 71.2787H76.8559L75.004 74.4863Z" fill="#645BE7"/>
<path d="M71.3004 87.3173L69.4484 84.1097H73.1523L71.3004 87.3173Z" fill="#645BE7"/>
<path d="M69.4485 84.1096L71.3004 87.3173L67.5965 87.3172L69.4485 84.1096Z" fill="#645BE7"/>
<path d="M73.1523 84.1096L75.0042 87.3173L71.3003 87.3172L73.1523 84.1096Z" fill="#645BE7"/>
<path d="M71.3004 80.9021L73.1523 84.1097H69.4485L71.3004 80.9021Z" fill="#645BE7"/>
<path d="M63.8932 87.3173L62.0413 84.1097H65.7451L63.8932 87.3173Z" fill="#645BE7"/>
<path d="M62.0413 84.1096L63.8932 87.3173L60.1894 87.3172L62.0413 84.1096Z" fill="#645BE7"/>
<path d="M65.7451 84.1096L67.5971 87.3173L63.8932 87.3172L65.7451 84.1096Z" fill="#645BE7"/>
<path d="M63.8932 80.9021L65.7451 84.1097H62.0413L63.8932 80.9021Z" fill="#645BE7"/>
<path d="M50.6584 74.4863L48.8065 71.2787H52.5104L50.6584 74.4863Z" fill="#645BE7"/>
<path d="M48.8065 71.2786L50.6584 74.4863H46.9546L48.8065 71.2786Z" fill="#645BE7"/>
<path d="M52.5103 71.2786L54.3623 74.4863H50.6584L52.5103 71.2786Z" fill="#645BE7"/>
<path d="M50.6584 68.0711L52.5103 71.2787H48.8065L50.6584 68.0711Z" fill="#645BE7"/>
<path d="M58.0663 61.6541L56.2144 58.4464H59.9182L58.0663 61.6541Z" fill="#645BE7"/>
<path d="M56.2143 58.4464L58.0663 61.654H54.3624L56.2143 58.4464Z" fill="#645BE7"/>
<path d="M59.9182 58.4464L61.7701 61.654H58.0663L59.9182 58.4464Z" fill="#645BE7"/>
<path d="M58.0662 55.2388L59.9182 58.4465H56.2143L58.0662 55.2388Z" fill="#645BE7"/>
<path d="M43.2508 61.6541L41.3989 58.4464H45.1028L43.2508 61.6541Z" fill="#645BE7"/>
<path d="M41.3989 58.4464L43.2508 61.654H39.547L41.3989 58.4464Z" fill="#645BE7"/>
<path d="M45.1028 58.4464L46.9547 61.654H43.2508L45.1028 58.4464Z" fill="#645BE7"/>
<path d="M43.2508 55.2388L45.1027 58.4465H41.3989L43.2508 55.2388Z" fill="#645BE7"/>
<path d="M50.659 61.6543L52.5109 64.8619H48.8071L50.659 61.6543Z" fill="#645BE7"/>
<path d="M52.5109 64.862L50.659 61.6544H54.3629L52.5109 64.862Z" fill="#645BE7"/>
<path d="M48.8071 64.862L46.9552 61.6544H50.659L48.8071 64.862Z" fill="#645BE7"/>
<path d="M50.6591 68.0695L48.8071 64.8619H52.511L50.6591 68.0695Z" fill="#645BE7"/>
<path d="M46.9548 68.0711L48.8067 71.2787H45.1028L46.9548 68.0711Z" fill="#645BE7"/>
<path d="M48.8067 71.2787L46.9548 68.0711H50.6587L48.8067 71.2787Z" fill="#645BE7"/>
<path d="M45.1028 71.2787L43.2509 68.0711H46.9548L45.1028 71.2787Z" fill="#645BE7"/>
<path d="M46.9548 74.4863L45.1029 71.2787H48.8067L46.9548 74.4863Z" fill="#645BE7"/>
<path d="M54.3627 55.2388L56.2146 58.4465H52.5107L54.3627 55.2388Z" fill="#645BE7"/>
<path d="M56.2146 58.4465L54.3626 55.2388H58.0665L56.2146 58.4465Z" fill="#645BE7"/>
<path d="M52.5107 58.4465L50.6588 55.2388H54.3626L52.5107 58.4465Z" fill="#645BE7"/>
<path d="M54.3626 61.6541L52.5107 58.4464H56.2145L54.3626 61.6541Z" fill="#645BE7"/>
<path d="M39.5472 55.2388L41.3991 58.4465H37.6953L39.5472 55.2388Z" fill="#645BE7"/>
<path d="M41.3991 58.4465L39.5472 55.2388H43.2511L41.3991 58.4465Z" fill="#645BE7"/>
<path d="M37.6952 58.4465L35.8433 55.2388H39.5471L37.6952 58.4465Z" fill="#645BE7"/>
<path d="M39.5472 61.6541L37.6952 58.4464H41.3991L39.5472 61.6541Z" fill="#645BE7"/>
<path d="M54.3626 68.0695L52.5107 64.8619H56.2146L54.3626 68.0695Z" fill="#645BE7"/>
<path d="M52.5107 64.8619L54.3627 68.0696H50.6588L52.5107 64.8619Z" fill="#645BE7"/>
<path d="M56.2146 64.8619L58.0665 68.0696H54.3627L56.2146 64.8619Z" fill="#645BE7"/>
<path d="M54.3627 61.6543L56.2146 64.8619H52.5108L54.3627 61.6543Z" fill="#645BE7"/>
<path d="M61.7704 68.0711L63.6223 71.2787H59.9185L61.7704 68.0711Z" fill="#645BE7"/>
<path d="M63.6223 71.2787L61.7703 68.0711H65.4742L63.6223 71.2787Z" fill="#645BE7"/>
<path d="M59.9184 71.2787L58.0665 68.0711H61.7704L59.9184 71.2787Z" fill="#645BE7"/>
<path d="M61.7704 74.4863L59.9185 71.2787H63.6223L61.7704 74.4863Z" fill="#645BE7"/>
<path d="M61.7704 55.2388L63.6223 58.4465H59.9184L61.7704 55.2388Z" fill="#645BE7"/>
<path d="M63.6222 58.4465L61.7703 55.2388H65.4742L63.6222 58.4465Z" fill="#645BE7"/>
<path d="M59.9184 58.4465L58.0665 55.2388H61.7703L59.9184 58.4465Z" fill="#645BE7"/>
<path d="M61.7703 61.6541L59.9184 58.4464H63.6223L61.7703 61.6541Z" fill="#645BE7"/>
<path d="M46.9549 55.2388L48.8068 58.4465H45.1029L46.9549 55.2388Z" fill="#645BE7"/>
<path d="M48.8068 58.4465L46.9549 55.2388H50.6587L48.8068 58.4465Z" fill="#645BE7"/>
<path d="M45.1029 58.4465L43.251 55.2388H46.9548L45.1029 58.4465Z" fill="#645BE7"/>
<path d="M46.9549 61.6541L45.1029 58.4464H48.8068L46.9549 61.6541Z" fill="#645BE7"/>
<path d="M46.9549 68.0695L45.103 64.8619H48.8069L46.9549 68.0695Z" fill="#645BE7"/>
<path d="M45.1031 64.8619L46.955 68.0696H43.2511L45.1031 64.8619Z" fill="#645BE7"/>
<path d="M48.8069 64.8619L50.6588 68.0696H46.955L48.8069 64.8619Z" fill="#645BE7"/>
<path d="M46.9549 61.6543L48.8069 64.8619H45.103L46.9549 61.6543Z" fill="#645BE7"/>
<path d="M50.6584 74.4866L52.5103 77.6942H48.8064L50.6584 74.4866Z" fill="#645BE7"/>
<path d="M52.5103 77.6942L50.6583 74.4866H54.3622L52.5103 77.6942Z" fill="#645BE7"/>
<path d="M48.8064 77.6942L46.9545 74.4866H50.6584L48.8064 77.6942Z" fill="#645BE7"/>
<path d="M50.6584 80.9018L48.8065 77.6942H52.5103L50.6584 80.9018Z" fill="#645BE7"/>
<path d="M58.0662 61.6543L59.9181 64.8619H56.2143L58.0662 61.6543Z" fill="#645BE7"/>
<path d="M59.9181 64.862L58.0662 61.6544H61.7701L59.9181 64.862Z" fill="#645BE7"/>
<path d="M56.2143 64.862L54.3624 61.6544H58.0662L56.2143 64.862Z" fill="#645BE7"/>
<path d="M58.0663 68.0695L56.2143 64.8619H59.9182L58.0663 68.0695Z" fill="#645BE7"/>
<path d="M43.2508 61.6543L45.1027 64.8619H41.3988L43.2508 61.6543Z" fill="#645BE7"/>
<path d="M45.1027 64.862L43.2508 61.6544H46.9547L45.1027 64.862Z" fill="#645BE7"/>
<path d="M41.3988 64.862L39.5469 61.6544H43.2508L41.3988 64.862Z" fill="#645BE7"/>
<path d="M43.2508 68.0695L41.3989 64.8619H45.1027L43.2508 68.0695Z" fill="#645BE7"/>
<path d="M50.6591 61.6541L48.8072 58.4464H52.511L50.6591 61.6541Z" fill="#645BE7"/>
<path d="M48.8071 58.4464L50.6591 61.654H46.9552L48.8071 58.4464Z" fill="#645BE7"/>
<path d="M52.511 58.4464L54.3629 61.654H50.6591L52.511 58.4464Z" fill="#645BE7"/>
<path d="M50.659 55.2388L52.511 58.4465H48.8071L50.659 55.2388Z" fill="#645BE7"/>
<path d="M97.2275 80.902L99.0794 84.1097H95.3756L97.2275 80.902Z" fill="#645BE7"/>
<path d="M99.0795 84.1096L97.2275 80.902H100.931L99.0795 84.1096Z" fill="#645BE7"/>
<path d="M95.3756 84.1096L93.5237 80.902H97.2275L95.3756 84.1096Z" fill="#645BE7"/>
<path d="M97.2275 87.3173L95.3756 84.1096H99.0795L97.2275 87.3173Z" fill="#645BE7"/>
<path d="M108.338 74.485L110.19 77.6927H106.486L108.338 74.485Z" fill="#645BE7"/>
<path d="M110.19 77.6927L108.338 74.4851H112.042L110.19 77.6927Z" fill="#645BE7"/>
<path d="M106.486 77.6927L104.634 74.4851H108.338L106.486 77.6927Z" fill="#645BE7"/>
<path d="M108.338 80.9003L106.486 77.6926H110.19L108.338 80.9003Z" fill="#645BE7"/>
<path d="M75.0053 87.3187L76.8571 90.5265H73.1535L75.0053 87.3187Z" fill="#645BE7"/>
<path d="M76.8571 90.5266L75.0053 87.3187H78.7089L76.8571 90.5266Z" fill="#645BE7"/>
<path d="M69.448 90.5266L67.5962 87.3187H71.2998L69.448 90.5266Z" fill="#645BE7"/>
<path d="M71.2998 93.7344L69.448 90.5265H73.1516L71.2998 93.7344Z" fill="#645BE7"/>
<path d="M100.931 68.0694L99.0793 64.8618H102.783L100.931 68.0694Z" fill="#645BE7"/>
<path d="M99.0793 64.8617L100.931 68.0693H97.2273L99.0793 64.8617Z" fill="#645BE7"/>
<path d="M102.783 64.8617L104.635 68.0693H100.931L102.783 64.8617Z" fill="#645BE7"/>
<path d="M100.931 61.6541L102.783 64.8617H99.0793L100.931 61.6541Z" fill="#645BE7"/>
<path d="M104.635 61.6561L106.487 64.8637H102.783L104.635 61.6561Z" fill="#645BE7"/>
<path d="M106.487 64.8638L104.635 61.6561H108.339L106.487 64.8638Z" fill="#645BE7"/>
<path d="M102.783 64.8638L100.931 61.6561H104.635L102.783 64.8638Z" fill="#645BE7"/>
<path d="M104.635 68.0713L102.783 64.8637H106.487L104.635 68.0713Z" fill="#645BE7"/>
<path d="M108.339 55.2408L110.191 58.4484H106.487L108.339 55.2408Z" fill="#645BE7"/>
<path d="M110.191 58.4485L108.339 55.2409H112.043L110.191 58.4485Z" fill="#645BE7"/>
<path d="M106.487 58.4485L104.635 55.2409H108.339L106.487 58.4485Z" fill="#645BE7"/>
<path d="M108.339 61.6561L106.487 58.4484H110.191L108.339 61.6561Z" fill="#645BE7"/>
<path d="M82.4156 100.149L84.2675 103.357H80.5636L82.4156 100.149Z" fill="#645BE7"/>
<path d="M84.2675 103.357L82.4156 100.149H86.1194L84.2675 103.357Z" fill="#645BE7"/>
<path d="M80.5636 103.357L78.7117 100.149H82.4156L80.5636 103.357Z" fill="#645BE7"/>
<path d="M82.4156 106.565L80.5637 103.357H84.2675L82.4156 106.565Z" fill="#645BE7"/>
<path d="M86.1196 93.7341L87.9715 96.9418H84.2677L86.1196 93.7341Z" fill="#645BE7"/>
<path d="M87.9715 96.9418L86.1196 93.7342H89.8235L87.9715 96.9418Z" fill="#645BE7"/>
<path d="M84.2677 96.9418L82.4158 93.7342H86.1196L84.2677 96.9418Z" fill="#645BE7"/>
<path d="M86.1196 100.149L84.2677 96.9418H87.9716L86.1196 100.149Z" fill="#645BE7"/>
<path d="M95.3757 64.8635H99.0795L97.2276 68.0712L95.3757 64.8635Z" fill="#645BE7"/>
<path d="M97.2276 68.0712H93.5238L95.3757 64.8635L97.2276 68.0712Z" fill="#645BE7"/>
<path d="M112.044 48.8236H115.748L113.896 52.0312L112.044 48.8236Z" fill="#645BE7"/>
<path d="M113.896 52.0312H110.193L112.044 48.8236L113.896 52.0312Z" fill="#645BE7"/>
<path d="M108.341 48.8236H112.045L110.193 52.0312L108.341 48.8236Z" fill="#645BE7"/>
<path d="M110.193 52.0312H106.489L108.341 48.8236L110.193 52.0312Z" fill="#645BE7"/>
<path d="M110.194 52.0313H113.898L112.046 55.2389L110.194 52.0313Z" fill="#645BE7"/>
<path d="M112.046 55.2389H108.342L110.194 52.0313L112.046 55.2389Z" fill="#645BE7"/>
<path d="M106.491 52.0313H110.194L108.343 55.2389L106.491 52.0313Z" fill="#645BE7"/>
<path d="M108.343 55.2389H104.639L106.491 52.0313L108.343 55.2389Z" fill="#645BE7"/>
<path d="M87.9701 19.9587H91.6739L89.822 23.1663L87.9701 19.9587Z" fill="#645BE7"/>
<path d="M89.8221 23.1663H86.1182L87.9701 19.9587L89.8221 23.1663Z" fill="#645BE7"/>
</g>
</svg>
