<svg width="116" height="116" viewBox="0 0 116 116" fill="none" xmlns="http://www.w3.org/2000/svg">
<g clip-path="url(#clip0_164_4213)">
<path d="M43.5227 39.2028L41.6708 42.4104L39.8189 39.2028L43.5227 39.2028Z" fill="white"/>
<path d="M41.6709 42.4105L43.5228 39.2028L45.3748 42.4105L41.6709 42.4105Z" fill="white"/>
<path d="M39.8189 39.2028L41.6708 35.9951L43.5228 39.2028L39.8189 39.2028Z" fill="white"/>
<path d="M37.967 42.4105L39.8189 39.2028L41.6708 42.4105L37.967 42.4105Z" fill="white"/>
<path d="M47.2265 19.957L45.3746 23.1647L43.5227 19.957L47.2265 19.957Z" fill="white"/>
<path d="M45.3746 23.1647L47.2265 19.9571L49.0785 23.1647L45.3746 23.1647Z" fill="white"/>
<path d="M43.5227 19.957L45.3746 16.7494L47.2265 19.957L43.5227 19.957Z" fill="white"/>
<path d="M41.6708 23.1647L43.5227 19.9571L45.3746 23.1647L41.6708 23.1647Z" fill="white"/>
<path d="M54.6342 32.7875L52.7823 35.9952L50.9304 32.7875L54.6342 32.7875Z" fill="white"/>
<path d="M52.7823 35.9952L54.6342 32.7876L56.4862 35.9952L52.7823 35.9952Z" fill="white"/>
<path d="M50.9303 32.7875L52.7823 29.5799L54.6342 32.7875L50.9303 32.7875Z" fill="white"/>
<path d="M49.0784 35.9952L50.9303 32.7876L52.7823 35.9952L49.0784 35.9952Z" fill="white"/>
<path d="M58.3381 39.2028L56.4861 42.4104L54.6342 39.2028L58.3381 39.2028Z" fill="white"/>
<path d="M56.4861 42.4105L58.3381 39.2029L60.19 42.4105L56.4861 42.4105Z" fill="white"/>
<path d="M54.6342 39.2029L56.4861 35.9953L58.3381 39.2029L54.6342 39.2029Z" fill="white"/>
<path d="M52.7823 42.4105L54.6342 39.2029L56.4862 42.4105L52.7823 42.4105Z" fill="white"/>
<path d="M50.9308 26.3721L52.7827 23.1644L54.6346 26.3721L50.9308 26.3721Z" fill="white"/>
<path d="M52.7827 23.1644L50.9307 26.3721L49.0788 23.1644L52.7827 23.1644Z" fill="white"/>
<path d="M54.6346 26.3721L52.7827 29.5798L50.9308 26.3721L54.6346 26.3721Z" fill="white"/>
<path d="M56.4865 23.1644L54.6346 26.3721L52.7827 23.1644L56.4865 23.1644Z" fill="white"/>
<path d="M47.2267 19.9569L49.0787 16.7493L50.9306 19.9569L47.2267 19.9569Z" fill="white"/>
<path d="M49.0787 16.7493L47.2267 19.9569L45.3748 16.7493L49.0787 16.7493Z" fill="white"/>
<path d="M50.9306 19.957L49.0787 23.1646L47.2268 19.957L50.9306 19.957Z" fill="white"/>
<path d="M52.7825 16.7493L50.9306 19.9569L49.0787 16.7493L52.7825 16.7493Z" fill="white"/>
<path d="M54.6345 32.7874L56.4864 29.5797L58.3383 32.7874L54.6345 32.7874Z" fill="white"/>
<path d="M56.4864 29.5797L54.6344 32.7873L52.7825 29.5797L56.4864 29.5797Z" fill="white"/>
<path d="M58.3383 32.7875L56.4864 35.9951L54.6345 32.7875L58.3383 32.7875Z" fill="white"/>
<path d="M60.1902 29.5797L58.3383 32.7873L56.4864 29.5797L60.1902 29.5797Z" fill="white"/>
<path d="M50.9305 26.3722L49.0786 29.5798L47.2266 26.3722L50.9305 26.3722Z" fill="white"/>
<path d="M49.0786 29.5799L50.9305 26.3723L52.7824 29.5799L49.0786 29.5799Z" fill="white"/>
<path d="M47.2267 26.3722L49.0786 23.1646L50.9305 26.3722L47.2267 26.3722Z" fill="white"/>
<path d="M45.3747 29.5799L47.2266 26.3723L49.0786 29.5799L45.3747 29.5799Z" fill="white"/>
<path d="M50.9305 39.2028L49.0786 42.4104L47.2266 39.2028L50.9305 39.2028Z" fill="white"/>
<path d="M49.0786 42.4105L50.9305 39.2028L52.7824 42.4105L49.0786 42.4105Z" fill="white"/>
<path d="M47.2267 39.2028L49.0786 35.9951L50.9305 39.2028L47.2267 39.2028Z" fill="white"/>
<path d="M45.3747 42.4105L47.2266 39.2028L49.0786 42.4105L45.3747 42.4105Z" fill="white"/>
<path d="M47.2266 32.7875L45.3747 35.9951L43.5228 32.7875L47.2266 32.7875Z" fill="white"/>
<path d="M45.3747 35.9951L47.2266 32.7875L49.0786 35.9951L45.3747 35.9951Z" fill="white"/>
<path d="M43.5228 32.7874L45.3747 29.5798L47.2267 32.7874L43.5228 32.7874Z" fill="white"/>
<path d="M41.6709 35.9951L43.5228 32.7875L45.3748 35.9951L41.6709 35.9951Z" fill="white"/>
<path d="M43.5228 26.3722L45.3747 23.1646L47.2266 26.3722L43.5228 26.3722Z" fill="white"/>
<path d="M45.3747 23.1645L43.5228 26.3722L41.6709 23.1645L45.3747 23.1645Z" fill="white"/>
<path d="M47.2266 26.3722L45.3747 29.5798L43.5228 26.3722L47.2266 26.3722Z" fill="white"/>
<path d="M49.0786 23.1645L47.2266 26.3722L45.3747 23.1645L49.0786 23.1645Z" fill="white"/>
<path d="M50.9305 39.2028L52.7824 35.9951L54.6344 39.2028L50.9305 39.2028Z" fill="white"/>
<path d="M52.7824 35.9951L50.9305 39.2027L49.0786 35.9951L52.7824 35.9951Z" fill="white"/>
<path d="M54.6343 39.2028L52.7824 42.4104L50.9305 39.2028L54.6343 39.2028Z" fill="white"/>
<path d="M56.4863 35.9951L54.6343 39.2027L52.7824 35.9951L56.4863 35.9951Z" fill="white"/>
<path d="M67.5979 29.5795L63.8941 35.9954L60.1902 29.58L67.5979 29.5795Z" fill="white"/>
<path d="M75.0057 29.5795L71.302 35.9954L67.5981 29.58L75.0057 29.5795Z" fill="white"/>
<path d="M78.7091 35.9939L75.0054 42.4098L71.3015 35.9944L78.7091 35.9939Z" fill="white"/>
<path d="M86.1164 35.9956L82.4127 42.4115L78.7088 35.9961L86.1164 35.9956Z" fill="white"/>
<path d="M89.8208 42.4119L86.1171 48.8278L82.4132 42.4124L89.8208 42.4119Z" fill="white"/>
<path d="M86.1172 48.8245L82.4135 55.2404L78.7096 48.825L86.1172 48.8245Z" fill="white"/>
<path d="M100.931 35.9954L97.2273 42.4113L93.5234 35.9959L100.931 35.9954Z" fill="white"/>
<path d="M104.639 29.5766L100.935 35.9925L97.2312 29.5771L104.639 29.5766Z" fill="white"/>
<path d="M93.5274 35.9976L97.2311 29.5817L100.935 35.9971L93.5274 35.9976Z" fill="white"/>
<path d="M82.4131 29.5798L78.7094 35.9957L75.0054 29.5803L82.4131 29.5798Z" fill="white"/>
<path d="M89.8204 29.5801L86.1167 35.996L82.4128 29.5807L89.8204 29.5801Z" fill="white"/>
<path d="M99.0817 13.5428L95.378 19.9587L91.6741 13.5434L99.0817 13.5428Z" fill="white"/>
<path d="M75.006 3.92047L71.3022 10.3364L67.5983 3.92099L75.006 3.92047Z" fill="white"/>
<path d="M67.5981 42.4103L71.3018 35.9944L75.0057 42.4098L67.5981 42.4103Z" fill="white"/>
<path d="M75.0057 42.4103L78.7094 35.9944L82.4133 42.4098L75.0057 42.4103Z" fill="white"/>
<path d="M71.3018 35.9949L75.0055 29.579L78.7094 35.9944L71.3018 35.9949Z" fill="white"/>
<path d="M63.8942 35.9949L67.5979 29.579L71.3018 35.9944L63.8942 35.9949Z" fill="white"/>
<path d="M82.4142 29.5822L86.1179 23.1663L89.8218 29.5816L82.4142 29.5822Z" fill="white"/>
<path d="M87.9704 19.9593L91.6741 13.5434L95.378 19.9588L87.9704 19.9593Z" fill="white"/>
<path d="M63.8947 10.3369L67.5984 3.92102L71.3023 10.3364L63.8947 10.3369Z" fill="white"/>
<path d="M78.7103 48.824L82.414 42.4081L86.1179 48.8235L78.7103 48.824Z" fill="white"/>
<path d="M58.3377 39.2024L60.1897 35.9948L62.0416 39.2024L58.3377 39.2024Z" fill="white"/>
<path d="M60.1897 35.9947L58.3377 39.2024L56.4858 35.9947L60.1897 35.9947Z" fill="white"/>
<path d="M62.0416 39.2024L60.1896 42.41L58.3377 39.2024L62.0416 39.2024Z" fill="white"/>
<path d="M63.8935 35.9947L62.0416 39.2024L60.1897 35.9947L63.8935 35.9947Z" fill="white"/>
<path d="M65.7462 39.2026L67.5982 35.995L69.4501 39.2026L65.7462 39.2026Z" fill="white"/>
<path d="M67.5981 35.9949L65.7462 39.2026L63.8943 35.9949L67.5981 35.9949Z" fill="white"/>
<path d="M69.45 39.2026L67.5981 42.4103L65.7462 39.2026L69.45 39.2026Z" fill="white"/>
<path d="M71.3019 35.9949L69.45 39.2026L67.5981 35.9949L71.3019 35.9949Z" fill="white"/>
<path d="M62.0415 19.957L60.1895 23.1646L58.3376 19.957L62.0415 19.957Z" fill="white"/>
<path d="M60.1895 23.1646L62.0415 19.9569L63.8934 23.1646L60.1895 23.1646Z" fill="white"/>
<path d="M58.3376 19.9569L60.1895 16.7492L62.0414 19.9569L58.3376 19.9569Z" fill="white"/>
<path d="M56.4857 23.1646L58.3376 19.9569L60.1895 23.1646L56.4857 23.1646Z" fill="white"/>
<path d="M65.7455 13.5432L67.5974 10.3356L69.4493 13.5432L65.7455 13.5432Z" fill="white"/>
<path d="M67.5974 10.3356L65.7455 13.5433L63.8935 10.3356L67.5974 10.3356Z" fill="white"/>
<path d="M69.4493 13.5433L67.5974 16.7509L65.7455 13.5433L69.4493 13.5433Z" fill="white"/>
<path d="M71.3012 10.3356L69.4493 13.5433L67.5974 10.3356L71.3012 10.3356Z" fill="white"/>
<path d="M39.8189 19.957L41.6708 16.7494L43.5227 19.957L39.8189 19.957Z" fill="white"/>
<path d="M41.6708 16.7493L39.8189 19.957L37.9669 16.7493L41.6708 16.7493Z" fill="white"/>
<path d="M43.5227 19.957L41.6708 23.1647L39.8189 19.957L43.5227 19.957Z" fill="white"/>
<path d="M45.3747 16.7493L43.5228 19.957L41.6708 16.7493L45.3747 16.7493Z" fill="white"/>
<path d="M39.8187 19.9571L37.9668 23.1648L36.1149 19.9571L39.8187 19.9571Z" fill="white"/>
<path d="M36.1149 19.9571L37.9668 16.7495L39.8188 19.9571L36.1149 19.9571Z" fill="white"/>
<path d="M37.9668 23.1647L36.1149 26.3723L34.263 23.1647L37.9668 23.1647Z" fill="white"/>
<path d="M34.263 23.1647L36.1149 19.9571L37.9668 23.1647L34.263 23.1647Z" fill="white"/>
<path d="M36.1149 26.3724L34.263 29.58L32.411 26.3724L36.1149 26.3724Z" fill="white"/>
<path d="M32.4111 26.3723L34.263 23.1647L36.1149 26.3723L32.4111 26.3723Z" fill="white"/>
<path d="M34.263 29.5799L32.4111 32.7875L30.5592 29.5799L34.263 29.5799Z" fill="white"/>
<path d="M30.5592 29.58L32.4111 26.3723L34.263 29.58L30.5592 29.58Z" fill="white"/>
<path d="M32.4111 32.7876L30.5592 35.9952L28.7073 32.7876L32.4111 32.7876Z" fill="white"/>
<path d="M28.7072 32.7876L30.5591 29.58L32.4111 32.7876L28.7072 32.7876Z" fill="white"/>
<path d="M30.5591 35.9951L28.7072 39.2027L26.8553 35.9951L30.5591 35.9951Z" fill="white"/>
<path d="M26.8553 35.9952L28.7072 32.7876L30.5592 35.9952L26.8553 35.9952Z" fill="white"/>
<path d="M28.7073 39.2028L26.8554 42.4104L25.0035 39.2028L28.7073 39.2028Z" fill="white"/>
<path d="M25.0034 39.2028L26.8554 35.9951L28.7073 39.2028L25.0034 39.2028Z" fill="white"/>
<path d="M47.2266 32.7875L49.0786 29.5799L50.9305 32.7875L47.2266 32.7875Z" fill="white"/>
<path d="M49.0786 29.5798L47.2266 32.7875L45.3747 29.5798L49.0786 29.5798Z" fill="white"/>
<path d="M50.9305 32.7875L49.0785 35.9952L47.2266 32.7875L50.9305 32.7875Z" fill="white"/>
<path d="M52.7824 29.5798L50.9305 32.7875L49.0786 29.5798L52.7824 29.5798Z" fill="white"/>
<path d="M43.5228 39.2031L45.3747 35.9955L47.2266 39.2031L43.5228 39.2031Z" fill="white"/>
<path d="M45.3747 35.9955L43.5228 39.2031L41.6708 35.9955L45.3747 35.9955Z" fill="white"/>
<path d="M47.2266 39.2031L45.3746 42.4107L43.5227 39.2031L47.2266 39.2031Z" fill="white"/>
<path d="M49.0785 35.9955L47.2266 39.2031L45.3747 35.9955L49.0785 35.9955Z" fill="white"/>
<path d="M58.3384 26.3722L56.4864 29.5798L54.6345 26.3722L58.3384 26.3722Z" fill="white"/>
<path d="M56.4864 29.5798L58.3384 26.3722L60.1903 29.5798L56.4864 29.5798Z" fill="white"/>
<path d="M54.6345 26.3721L56.4865 23.1644L58.3384 26.3721L54.6345 26.3721Z" fill="white"/>
<path d="M52.7826 29.5798L54.6346 26.3722L56.4865 29.5798L52.7826 29.5798Z" fill="white"/>
<path d="M62.0422 32.7875L60.1903 35.9951L58.3384 32.7875L62.0422 32.7875Z" fill="white"/>
<path d="M60.1903 35.9951L62.0422 32.7874L63.8941 35.9951L60.1903 35.9951Z" fill="white"/>
<path d="M58.3384 32.7874L60.1903 29.5797L62.0422 32.7874L58.3384 32.7874Z" fill="white"/>
<path d="M56.4864 35.9951L58.3384 32.7874L60.1903 35.9951L56.4864 35.9951Z" fill="white"/>
<path d="M65.7458 39.2021L63.8939 42.4097L62.0419 39.2021L65.7458 39.2021Z" fill="white"/>
<path d="M63.8939 42.4097L65.7458 39.2021L67.5977 42.4097L63.8939 42.4097Z" fill="white"/>
<path d="M62.042 39.2022L63.8939 35.9945L65.7458 39.2022L62.042 39.2022Z" fill="white"/>
<path d="M60.1901 42.4097L62.042 39.2021L63.8939 42.4097L60.1901 42.4097Z" fill="white"/>
<path d="M34.2631 80.9005L37.9669 80.9005L36.115 84.1081L34.2631 80.9005Z" fill="white"/>
<path d="M37.9669 80.9005L34.263 80.9005L36.115 77.6929L37.9669 80.9005Z" fill="white"/>
<path d="M36.115 84.1081L32.4111 84.1081L34.263 80.9005L36.115 84.1081Z" fill="white"/>
<path d="M39.8188 84.1081L36.115 84.1081L37.9669 80.9005L39.8188 84.1081Z" fill="white"/>
<path d="M15.7439 87.3157L19.4477 87.3157L17.5958 90.5234L15.7439 87.3157Z" fill="white"/>
<path d="M19.4477 87.3157L15.7439 87.3157L17.5958 84.1081L19.4477 87.3157Z" fill="white"/>
<path d="M17.5958 90.5234L13.8919 90.5234L15.7439 87.3157L17.5958 90.5234Z" fill="white"/>
<path d="M21.2996 90.5234L17.5958 90.5234L19.4477 87.3157L21.2996 90.5234Z" fill="white"/>
<path d="M23.1516 74.4852L26.8554 74.4852L25.0035 77.6929L23.1516 74.4852Z" fill="white"/>
<path d="M26.8555 74.4853L23.1516 74.4853L25.0035 71.2777L26.8555 74.4853Z" fill="white"/>
<path d="M25.0036 77.6929L21.2997 77.6929L23.1516 74.4853L25.0036 77.6929Z" fill="white"/>
<path d="M28.7074 77.6929L25.0035 77.6929L26.8554 74.4852L28.7074 77.6929Z" fill="white"/>
<path d="M26.8555 68.0701L30.5593 68.0701L28.7074 71.2778L26.8555 68.0701Z" fill="white"/>
<path d="M30.5592 68.0701L26.8554 68.0701L28.7073 64.8625L30.5592 68.0701Z" fill="white"/>
<path d="M28.7074 71.2778L25.0035 71.2778L26.8554 68.0701L28.7074 71.2778Z" fill="white"/>
<path d="M32.4112 71.2778L28.7074 71.2778L30.5593 68.0701L32.4112 71.2778Z" fill="white"/>
<path d="M19.4473 80.9004L15.7434 80.9004L17.5954 77.6928L19.4473 80.9004Z" fill="white"/>
<path d="M15.7434 80.9003L19.4473 80.9003L17.5953 84.1079L15.7434 80.9003Z" fill="white"/>
<path d="M17.5953 77.6928L21.2992 77.6928L19.4472 80.9004L17.5953 77.6928Z" fill="white"/>
<path d="M13.8915 77.6928L17.5953 77.6928L15.7434 80.9004L13.8915 77.6928Z" fill="white"/>
<path d="M15.7436 87.3157L12.0397 87.3157L13.8917 84.108L15.7436 87.3157Z" fill="white"/>
<path d="M12.0397 87.3156L15.7435 87.3156L13.8916 90.5232L12.0397 87.3156Z" fill="white"/>
<path d="M13.8916 84.108L17.5955 84.108L15.7436 87.3157L13.8916 84.108Z" fill="white"/>
<path d="M10.1878 84.108L13.8916 84.108L12.0397 87.3157L10.1878 84.108Z" fill="white"/>
<path d="M23.1513 74.4852L19.4475 74.4852L21.2994 71.2776L23.1513 74.4852Z" fill="white"/>
<path d="M19.4474 74.4852L23.1513 74.4852L21.2994 77.6928L19.4474 74.4852Z" fill="white"/>
<path d="M21.2993 71.2776L25.0032 71.2776L23.1513 74.4852L21.2993 71.2776Z" fill="white"/>
<path d="M17.5955 71.2776L21.2994 71.2776L19.4474 74.4852L17.5955 71.2776Z" fill="white"/>
<path d="M19.4476 80.9005L23.1515 80.9005L21.2995 84.1081L19.4476 80.9005Z" fill="white"/>
<path d="M23.1515 80.9005L19.4477 80.9005L21.2996 77.6929L23.1515 80.9005Z" fill="white"/>
<path d="M21.2995 84.1081L17.5957 84.1081L19.4476 80.9005L21.2995 84.1081Z" fill="white"/>
<path d="M25.0034 84.1081L21.2996 84.1081L23.1515 80.9005L25.0034 84.1081Z" fill="white"/>
<path d="M30.5591 74.4852L34.2629 74.4852L32.411 77.6929L30.5591 74.4852Z" fill="white"/>
<path d="M34.263 74.4853L30.5592 74.4853L32.4111 71.2777L34.263 74.4853Z" fill="white"/>
<path d="M32.4111 77.6929L28.7072 77.6929L30.5592 74.4853L32.4111 77.6929Z" fill="white"/>
<path d="M36.1149 77.6929L32.411 77.6929L34.263 74.4852L36.1149 77.6929Z" fill="white"/>
<path d="M26.8553 80.9005L30.5592 80.9005L28.7072 84.1081L26.8553 80.9005Z" fill="white"/>
<path d="M30.5592 80.9005L26.8553 80.9005L28.7072 77.6929L30.5592 80.9005Z" fill="white"/>
<path d="M28.7072 84.1081L25.0033 84.1081L26.8552 80.9005L28.7072 84.1081Z" fill="white"/>
<path d="M32.4111 84.1081L28.7072 84.1081L30.5592 80.9005L32.4111 84.1081Z" fill="white"/>
<path d="M23.1515 87.3157L19.4476 87.3157L21.2995 84.1081L23.1515 87.3157Z" fill="white"/>
<path d="M19.4475 87.3157L23.1514 87.3157L21.2995 90.5234L19.4475 87.3157Z" fill="white"/>
<path d="M21.2995 84.1081L25.0033 84.1081L23.1514 87.3157L21.2995 84.1081Z" fill="white"/>
<path d="M17.5956 84.1081L21.2995 84.1081L19.4476 87.3157L17.5956 84.1081Z" fill="white"/>
<path d="M30.5592 74.4853L26.8553 74.4853L28.7072 71.2777L30.5592 74.4853Z" fill="white"/>
<path d="M26.8553 74.4852L30.5592 74.4852L28.7072 77.6929L26.8553 74.4852Z" fill="white"/>
<path d="M28.7072 71.2777L32.4111 71.2777L30.5591 74.4853L28.7072 71.2777Z" fill="white"/>
<path d="M25.0034 71.2777L28.7073 71.2777L26.8553 74.4853L25.0034 71.2777Z" fill="white"/>
<path d="M13.8914 64.8624L21.2996 64.862L17.5957 71.2774L13.8914 64.8624Z" fill="white"/>
<path d="M10.1875 58.447L17.5957 58.4465L13.8918 64.8619L10.1875 58.447Z" fill="white"/>
<path d="M13.8909 52.0325L21.2991 52.032L17.5952 58.4474L13.8909 52.0325Z" fill="white"/>
<path d="M10.1886 45.6169L17.5968 45.6165L13.8929 52.0318L10.1886 45.6169Z" fill="white"/>
<path d="M13.8931 39.2007L21.3013 39.2003L17.5974 45.6156L13.8931 39.2007Z" fill="white"/>
<path d="M21.2984 39.2017L28.7065 39.2012L25.0026 45.6166L21.2984 39.2017Z" fill="white"/>
<path d="M6.48522 39.2026L13.8934 39.2021L10.1895 45.6175L6.48522 39.2026Z" fill="white"/>
<path d="M6.48411 52.0321L13.8923 52.0316L10.1884 58.447L6.48411 52.0321Z" fill="white"/>
<path d="M2.78077 45.6169L10.1889 45.6165L6.48503 52.0318L2.78077 45.6169Z" fill="white"/>
<path d="M25.003 58.4468L17.5949 58.4473L21.2988 52.0319L25.003 58.4468Z" fill="white"/>
<path d="M21.2994 52.0316L13.8912 52.032L17.5951 45.6167L21.2994 52.0316Z" fill="white"/>
<path d="M17.5954 58.4471L10.1873 58.4475L13.8912 52.0321L17.5954 58.4471Z" fill="white"/>
<path d="M21.2991 64.8623L13.8909 64.8627L17.5949 58.4474L21.2991 64.8623Z" fill="white"/>
<path d="M13.8917 52.0318L6.48357 52.0322L10.1875 45.6168L13.8917 52.0318Z" fill="white"/>
<path d="M17.5962 45.6156L10.188 45.616L13.892 39.2007L17.5962 45.6156Z" fill="white"/>
<path d="M25.0015 45.6165L17.5933 45.6169L21.2972 39.2016L25.0015 45.6165Z" fill="white"/>
<path d="M10.1883 45.6175L2.78014 45.6179L6.48406 39.2025L10.1883 45.6175Z" fill="white"/>
<path d="M26.8551 68.0705L23.1512 68.0705L25.0032 64.8629L26.8551 68.0705Z" fill="white"/>
<path d="M23.1513 68.0705L26.8551 68.0705L25.0032 71.2781L23.1513 68.0705Z" fill="white"/>
<path d="M25.0032 64.8629L28.7071 64.8629L26.8552 68.0705L25.0032 64.8629Z" fill="white"/>
<path d="M21.2993 64.8629L25.0032 64.8629L23.1512 68.0705L21.2993 64.8629Z" fill="white"/>
<path d="M23.1511 61.6545L19.4473 61.6545L21.2992 58.4468L23.1511 61.6545Z" fill="white"/>
<path d="M19.4472 61.6545L23.1511 61.6545L21.2992 64.8622L19.4472 61.6545Z" fill="white"/>
<path d="M21.2992 58.4468L25.003 58.4468L23.1511 61.6545L21.2992 58.4468Z" fill="white"/>
<path d="M17.5953 58.4468L21.2992 58.4468L19.4472 61.6545L17.5953 58.4468Z" fill="white"/>
<path d="M12.0397 80.9003L15.7435 80.9003L13.8916 84.108L12.0397 80.9003Z" fill="white"/>
<path d="M15.7436 80.9004L12.0397 80.9004L13.8916 77.6928L15.7436 80.9004Z" fill="white"/>
<path d="M13.8917 84.108L10.1878 84.108L12.0397 80.9003L13.8917 84.108Z" fill="white"/>
<path d="M17.5955 84.108L13.8916 84.108L15.7435 80.9003L17.5955 84.108Z" fill="white"/>
<path d="M19.4476 93.731L15.7437 93.731L17.5957 90.5233L19.4476 93.731Z" fill="white"/>
<path d="M15.7437 93.731L19.4476 93.731L17.5957 96.9386L15.7437 93.731Z" fill="white"/>
<path d="M17.5957 90.5233L21.2995 90.5233L19.4476 93.731L17.5957 90.5233Z" fill="white"/>
<path d="M13.8918 90.5233L17.5957 90.5233L15.7438 93.731L13.8918 90.5233Z" fill="white"/>
<path d="M19.4478 93.7311L23.1517 93.7311L21.2997 96.9387L19.4478 93.7311Z" fill="white"/>
<path d="M21.2997 96.9387L17.5959 96.9387L19.4478 93.7311L21.2997 96.9387Z" fill="white"/>
<path d="M23.1516 93.7311L26.8555 93.7311L25.0036 96.9387L23.1516 93.7311Z" fill="white"/>
<path d="M25.0036 96.9387L21.2997 96.9387L23.1516 93.7311L25.0036 96.9387Z" fill="white"/>
<path d="M26.8555 93.7311L30.5593 93.7311L28.7074 96.9387L26.8555 93.7311Z" fill="white"/>
<path d="M28.7074 96.9387L25.0035 96.9387L26.8555 93.7311L28.7074 96.9387Z" fill="white"/>
<path d="M30.5593 93.7311L34.2632 93.7311L32.4112 96.9387L30.5593 93.7311Z" fill="white"/>
<path d="M32.4112 96.9387L28.7074 96.9387L30.5593 93.7311L32.4112 96.9387Z" fill="white"/>
<path d="M34.2631 93.7311L37.967 93.7311L36.1151 96.9387L34.2631 93.7311Z" fill="white"/>
<path d="M36.1151 96.9387L32.4112 96.9387L34.2632 93.7311L36.1151 96.9387Z" fill="white"/>
<path d="M37.967 93.7311L41.6709 93.7311L39.819 96.9387L37.967 93.7311Z" fill="white"/>
<path d="M39.8189 96.9387L36.1151 96.9387L37.967 93.7311L39.8189 96.9387Z" fill="white"/>
<path d="M41.6708 93.7311L45.3746 93.7311L43.5227 96.9387L41.6708 93.7311Z" fill="white"/>
<path d="M43.5228 96.9387L39.8189 96.9387L41.6708 93.7311L43.5228 96.9387Z" fill="white"/>
<path d="M26.8552 80.9005L23.1514 80.9005L25.0033 77.6929L26.8552 80.9005Z" fill="white"/>
<path d="M23.1514 80.9005L26.8552 80.9005L25.0033 84.1081L23.1514 80.9005Z" fill="white"/>
<path d="M25.0034 77.6929L28.7072 77.6929L26.8553 80.9005L25.0034 77.6929Z" fill="white"/>
<path d="M21.2995 77.6929L25.0033 77.6929L23.1514 80.9005L21.2995 77.6929Z" fill="white"/>
<path d="M34.2633 80.9004L30.5595 80.9004L32.4114 77.6928L34.2633 80.9004Z" fill="white"/>
<path d="M30.5594 80.9003L34.2633 80.9003L32.4114 84.108L30.5594 80.9003Z" fill="white"/>
<path d="M32.4113 77.6928L36.1152 77.6928L34.2633 80.9004L32.4113 77.6928Z" fill="white"/>
<path d="M28.7075 77.6928L32.4114 77.6928L30.5594 80.9004L28.7075 77.6928Z" fill="white"/>
<path d="M15.7436 74.4852L19.4475 74.4852L17.5955 77.6928L15.7436 74.4852Z" fill="white"/>
<path d="M19.4474 74.4852L15.7435 74.4852L17.5955 71.2776L19.4474 74.4852Z" fill="white"/>
<path d="M17.5955 77.6928L13.8916 77.6928L15.7436 74.4852L17.5955 77.6928Z" fill="white"/>
<path d="M21.2993 77.6928L17.5955 77.6928L19.4474 74.4852L21.2993 77.6928Z" fill="white"/>
<path d="M19.4474 68.07L23.1513 68.07L21.2993 71.2776L19.4474 68.07Z" fill="white"/>
<path d="M23.1513 68.0698L19.4475 68.0698L21.2994 64.8622L23.1513 68.0698Z" fill="white"/>
<path d="M21.2993 71.2776L17.5955 71.2776L19.4474 68.07L21.2993 71.2776Z" fill="white"/>
<path d="M25.0032 71.2776L21.2994 71.2776L23.1513 68.07L25.0032 71.2776Z" fill="white"/>
<path d="M23.151 61.6552L26.8549 61.6552L25.0029 64.8628L23.151 61.6552Z" fill="white"/>
<path d="M26.8549 61.6551L23.151 61.6551L25.0029 58.4475L26.8549 61.6551Z" fill="white"/>
<path d="M25.0029 64.8628L21.2991 64.8628L23.151 61.6552L25.0029 64.8628Z" fill="white"/>
<path d="M28.7068 64.8628L25.0029 64.8628L26.8548 61.6552L28.7068 64.8628Z" fill="white"/>
<path d="M75.0042 68.0713L73.1523 64.8637L76.8562 64.8637L75.0042 68.0713Z" fill="white"/>
<path d="M73.1523 64.8636L75.0042 68.0712L71.3004 68.0712L73.1523 64.8636Z" fill="white"/>
<path d="M76.8562 64.8636L78.7081 68.0712L75.0042 68.0712L76.8562 64.8636Z" fill="white"/>
<path d="M75.0042 61.656L76.8562 64.8636L73.1523 64.8636L75.0042 61.656Z" fill="white"/>
<path d="M89.8196 80.9017L87.9677 77.694L91.6715 77.694L89.8196 80.9017Z" fill="white"/>
<path d="M87.9677 77.694L89.8196 80.9017L86.1158 80.9017L87.9677 77.694Z" fill="white"/>
<path d="M91.6716 77.694L93.5235 80.9017L89.8196 80.9017L91.6716 77.694Z" fill="white"/>
<path d="M89.8196 74.4865L91.6715 77.6941L87.9677 77.6941L89.8196 74.4865Z" fill="white"/>
<path d="M104.634 80.9017L102.783 77.694L106.486 77.694L104.634 80.9017Z" fill="white"/>
<path d="M102.783 77.694L104.634 80.9017L100.931 80.9017L102.783 77.694Z" fill="white"/>
<path d="M106.486 77.694L108.338 80.9017L104.634 80.9017L106.486 77.694Z" fill="white"/>
<path d="M104.634 74.4865L106.486 77.6941L102.783 77.6941L104.634 74.4865Z" fill="white"/>
<path d="M75.0042 80.9017L73.1523 77.694L76.8562 77.694L75.0042 80.9017Z" fill="white"/>
<path d="M73.1523 77.694L75.0042 80.9017L71.3004 80.9017L73.1523 77.694Z" fill="white"/>
<path d="M76.8562 77.694L78.7081 80.9017L75.0042 80.9017L76.8562 77.694Z" fill="white"/>
<path d="M75.0042 74.4865L76.8562 77.6941L73.1523 77.6941L75.0042 74.4865Z" fill="white"/>
<path d="M67.5965 80.9017L65.7446 77.694L69.4485 77.694L67.5965 80.9017Z" fill="white"/>
<path d="M65.7446 77.694L67.5965 80.9017L63.8926 80.9017L65.7446 77.694Z" fill="white"/>
<path d="M69.4485 77.694L71.3004 80.9017L67.5965 80.9017L69.4485 77.694Z" fill="white"/>
<path d="M67.5966 74.4865L69.4485 77.6941L65.7446 77.6941L67.5966 74.4865Z" fill="white"/>
<path d="M75.0042 80.9021L76.8562 84.1097H73.1523L75.0042 80.9021Z" fill="white"/>
<path d="M76.8562 84.1097L75.0042 80.902L78.7081 80.902L76.8562 84.1097Z" fill="white"/>
<path d="M73.1523 84.1097L71.3004 80.902L75.0042 80.902L73.1523 84.1097Z" fill="white"/>
<path d="M75.0042 87.3173L73.1523 84.1097L76.8562 84.1097L75.0042 87.3173Z" fill="white"/>
<path d="M82.4119 80.9018L80.56 77.6942L84.2639 77.6942L82.4119 80.9018Z" fill="white"/>
<path d="M80.56 77.6942L82.4119 80.9018L78.7081 80.9018L80.56 77.6942Z" fill="white"/>
<path d="M84.2638 77.6942L86.1158 80.9018L82.4119 80.9018L84.2638 77.6942Z" fill="white"/>
<path d="M82.4119 74.4866L84.2639 77.6942L80.56 77.6942L82.4119 74.4866Z" fill="white"/>
<path d="M71.3004 74.4866L69.4484 71.2789L73.1523 71.2789L71.3004 74.4866Z" fill="white"/>
<path d="M69.4485 71.2789L71.3004 74.4866L67.5965 74.4866L69.4485 71.2789Z" fill="white"/>
<path d="M73.1523 71.2789L75.0042 74.4866L71.3003 74.4866L73.1523 71.2789Z" fill="white"/>
<path d="M71.3004 68.0714L73.1523 71.279L69.4485 71.279L71.3004 68.0714Z" fill="white"/>
<path d="M78.7081 74.4866L76.8562 71.2789L80.56 71.2789L78.7081 74.4866Z" fill="white"/>
<path d="M76.8562 71.2789L78.7081 74.4866L75.0042 74.4866L76.8562 71.2789Z" fill="white"/>
<path d="M80.56 71.2789L82.4119 74.4866L78.7081 74.4866L80.56 71.2789Z" fill="white"/>
<path d="M78.7081 68.0714L80.56 71.279L76.8562 71.279L78.7081 68.0714Z" fill="white"/>
<path d="M86.1158 74.4866L87.9677 77.6942H84.2639L86.1158 74.4866Z" fill="white"/>
<path d="M87.9677 77.6942L86.1158 74.4866L89.8196 74.4866L87.9677 77.6942Z" fill="white"/>
<path d="M84.2638 77.6942L82.4119 74.4866L86.1158 74.4866L84.2638 77.6942Z" fill="white"/>
<path d="M86.1158 80.9018L84.2639 77.6942L87.9677 77.6942L86.1158 80.9018Z" fill="white"/>
<path d="M71.3004 74.4866L73.1523 77.6942H69.4485L71.3004 74.4866Z" fill="white"/>
<path d="M73.1523 77.6942L71.3004 74.4866L75.0042 74.4866L73.1523 77.6942Z" fill="white"/>
<path d="M69.4484 77.6942L67.5965 74.4866L71.3004 74.4866L69.4484 77.6942Z" fill="white"/>
<path d="M71.3004 80.9018L69.4485 77.6942L73.1523 77.6942L71.3004 80.9018Z" fill="white"/>
<path d="M67.5967 100.148L63.8923 93.7325H71.3001L67.5967 100.148Z" fill="white"/>
<path d="M60.1899 100.148L56.4854 93.7325H63.8933L60.1899 100.148Z" fill="white"/>
<path d="M56.4849 106.562L52.7805 100.147H60.1883L56.4849 106.562Z" fill="white"/>
<path d="M49.0761 106.562L45.3716 100.147H52.7794L49.0761 106.562Z" fill="white"/>
<path d="M45.3743 100.148L41.6699 93.7328H49.0777L45.3743 100.148Z" fill="white"/>
<path d="M52.7817 112.976L49.0773 106.561H56.4851L52.7817 112.976Z" fill="white"/>
<path d="M60.1889 112.977L56.4844 106.562H63.8923L60.1889 112.977Z" fill="white"/>
<path d="M60.1888 87.3174L63.8933 93.7328L56.4855 93.7328L60.1888 87.3174Z" fill="white"/>
<path d="M56.4849 93.7325L60.1894 100.148L52.7816 100.148L56.4849 93.7325Z" fill="white"/>
<path d="M63.8928 93.7325L67.5973 100.148L60.1894 100.148L63.8928 93.7325Z" fill="white"/>
<path d="M67.5967 87.3174L71.3012 93.7328L63.8933 93.7328L67.5967 87.3174Z" fill="white"/>
<path d="M67.5973 100.148L71.3018 106.563L63.8939 106.563L67.5973 100.148Z" fill="white"/>
<path d="M52.7799 100.148L56.4844 106.563L49.0766 106.563L52.7799 100.148Z" fill="white"/>
<path d="M49.0781 93.734L52.7826 100.149L45.3748 100.149L49.0781 93.734Z" fill="white"/>
<path d="M56.4856 106.562L60.19 112.977L52.7822 112.977L56.4856 106.562Z" fill="white"/>
<path d="M67.597 80.9017L69.449 84.1093H65.7451L67.597 80.9017Z" fill="white"/>
<path d="M69.449 84.1093L67.597 80.9017L71.3009 80.9017L69.449 84.1093Z" fill="white"/>
<path d="M65.7452 84.1093L63.8933 80.9017L67.5971 80.9017L65.7452 84.1093Z" fill="white"/>
<path d="M67.5971 87.3169L65.7452 84.1093L69.449 84.1093L67.5971 87.3169Z" fill="white"/>
<path d="M63.8927 87.3176L65.7446 90.5252H62.0407L63.8927 87.3176Z" fill="white"/>
<path d="M65.7446 90.5251L63.8927 87.3175L67.5965 87.3175L65.7446 90.5251Z" fill="white"/>
<path d="M62.0407 90.5251L60.1888 87.3175L63.8926 87.3175L62.0407 90.5251Z" fill="white"/>
<path d="M63.8927 93.7327L62.0408 90.5251L65.7446 90.5251L63.8927 93.7327Z" fill="white"/>
<path d="M78.7096 106.561L76.8577 103.353L80.5616 103.353L78.7096 106.561Z" fill="white"/>
<path d="M76.8577 103.353L78.7097 106.561L75.0058 106.561L76.8577 103.353Z" fill="white"/>
<path d="M80.5616 103.353L82.4135 106.561L78.7097 106.561L80.5616 103.353Z" fill="white"/>
<path d="M78.7097 100.146L80.5616 103.353L76.8578 103.353L78.7097 100.146Z" fill="white"/>
<path d="M93.5235 74.4866L95.3754 77.6942H91.6715L93.5235 74.4866Z" fill="white"/>
<path d="M95.3754 77.6942L93.5235 74.4866L97.2273 74.4866L95.3754 77.6942Z" fill="white"/>
<path d="M91.6716 77.6942L89.8196 74.4866L93.5235 74.4866L91.6716 77.6942Z" fill="white"/>
<path d="M93.5235 80.9018L91.6715 77.6942L95.3754 77.6942L93.5235 80.9018Z" fill="white"/>
<path d="M93.5235 74.4863L91.6715 71.2787L95.3754 71.2787L93.5235 74.4863Z" fill="white"/>
<path d="M95.3754 71.2786L97.2273 74.4863L93.5235 74.4863L95.3754 71.2786Z" fill="white"/>
<path d="M91.6716 71.2786L89.8196 68.071L93.5235 68.071L91.6716 71.2786Z" fill="white"/>
<path d="M93.5235 68.071L95.3754 71.2787L91.6715 71.2787L93.5235 68.071Z" fill="white"/>
<path d="M87.9677 64.8634L86.1158 61.6558L89.8196 61.6558L87.9677 64.8634Z" fill="white"/>
<path d="M89.8196 61.6558L91.6715 64.8635L87.9677 64.8635L89.8196 61.6558Z" fill="white"/>
<path d="M86.1158 61.6559L84.2638 58.4483L87.9677 58.4483L86.1158 61.6559Z" fill="white"/>
<path d="M87.9677 58.4482L89.8196 61.6558L86.1158 61.6558L87.9677 58.4482Z" fill="white"/>
<path d="M84.2677 58.4482L82.4157 55.2406L86.1196 55.2406L84.2677 58.4482Z" fill="white"/>
<path d="M86.1196 55.2405L87.9715 58.4482L84.2677 58.4482L86.1196 55.2405Z" fill="white"/>
<path d="M84.2653 52.0328L86.1172 55.2404L82.4134 55.2404L84.2653 52.0328Z" fill="white"/>
<path d="M78.7081 74.4866L80.56 77.6942H76.8562L78.7081 74.4866Z" fill="white"/>
<path d="M80.56 77.6942L78.708 74.4866L82.4119 74.4866L80.56 77.6942Z" fill="white"/>
<path d="M76.8562 77.6942L75.0042 74.4866L78.7081 74.4866L76.8562 77.6942Z" fill="white"/>
<path d="M78.7081 80.9018L76.8562 77.6942L80.56 77.6942L78.7081 80.9018Z" fill="white"/>
<path d="M75.004 68.0711L76.8559 71.2787H73.152L75.004 68.0711Z" fill="white"/>
<path d="M76.8559 71.2787L75.004 68.0711L78.7078 68.0711L76.8559 71.2787Z" fill="white"/>
<path d="M73.1521 71.2787L71.3001 68.0711L75.004 68.0711L73.1521 71.2787Z" fill="white"/>
<path d="M75.004 74.4863L73.1521 71.2787L76.8559 71.2787L75.004 74.4863Z" fill="white"/>
<path d="M71.3004 87.3173L69.4484 84.1097L73.1523 84.1097L71.3004 87.3173Z" fill="white"/>
<path d="M69.4485 84.1096L71.3004 87.3173L67.5965 87.3172L69.4485 84.1096Z" fill="white"/>
<path d="M73.1523 84.1096L75.0042 87.3173L71.3003 87.3172L73.1523 84.1096Z" fill="white"/>
<path d="M71.3004 80.9021L73.1523 84.1097L69.4485 84.1097L71.3004 80.9021Z" fill="white"/>
<path d="M63.8932 87.3173L62.0413 84.1097L65.7451 84.1097L63.8932 87.3173Z" fill="white"/>
<path d="M62.0413 84.1096L63.8932 87.3173L60.1894 87.3172L62.0413 84.1096Z" fill="white"/>
<path d="M65.7451 84.1096L67.5971 87.3173L63.8932 87.3172L65.7451 84.1096Z" fill="white"/>
<path d="M63.8932 80.9021L65.7451 84.1097L62.0413 84.1097L63.8932 80.9021Z" fill="white"/>
<path d="M50.6584 74.4863L48.8065 71.2787L52.5104 71.2787L50.6584 74.4863Z" fill="white"/>
<path d="M48.8065 71.2786L50.6584 74.4863L46.9546 74.4863L48.8065 71.2786Z" fill="white"/>
<path d="M52.5103 71.2786L54.3623 74.4863L50.6584 74.4863L52.5103 71.2786Z" fill="white"/>
<path d="M50.6584 68.0711L52.5103 71.2787L48.8065 71.2787L50.6584 68.0711Z" fill="white"/>
<path d="M58.0663 61.6541L56.2144 58.4464L59.9182 58.4464L58.0663 61.6541Z" fill="white"/>
<path d="M56.2143 58.4464L58.0663 61.654L54.3624 61.654L56.2143 58.4464Z" fill="white"/>
<path d="M59.9182 58.4464L61.7701 61.654L58.0663 61.654L59.9182 58.4464Z" fill="white"/>
<path d="M58.0662 55.2388L59.9182 58.4465L56.2143 58.4465L58.0662 55.2388Z" fill="white"/>
<path d="M43.2508 61.6541L41.3989 58.4464L45.1028 58.4464L43.2508 61.6541Z" fill="white"/>
<path d="M41.3989 58.4464L43.2508 61.654L39.547 61.654L41.3989 58.4464Z" fill="white"/>
<path d="M45.1028 58.4464L46.9547 61.654L43.2508 61.654L45.1028 58.4464Z" fill="white"/>
<path d="M43.2508 55.2388L45.1027 58.4465L41.3989 58.4465L43.2508 55.2388Z" fill="white"/>
<path d="M50.659 61.6543L52.5109 64.8619L48.8071 64.8619L50.659 61.6543Z" fill="white"/>
<path d="M52.5109 64.862L50.659 61.6544L54.3629 61.6544L52.5109 64.862Z" fill="white"/>
<path d="M48.8071 64.862L46.9552 61.6544L50.659 61.6544L48.8071 64.862Z" fill="white"/>
<path d="M50.6591 68.0695L48.8071 64.8619L52.511 64.8619L50.6591 68.0695Z" fill="white"/>
<path d="M46.9548 68.0711L48.8067 71.2787H45.1028L46.9548 68.0711Z" fill="white"/>
<path d="M48.8067 71.2787L46.9548 68.0711L50.6587 68.0711L48.8067 71.2787Z" fill="white"/>
<path d="M45.1028 71.2787L43.2509 68.0711L46.9548 68.0711L45.1028 71.2787Z" fill="white"/>
<path d="M46.9548 74.4863L45.1029 71.2787L48.8067 71.2787L46.9548 74.4863Z" fill="white"/>
<path d="M54.3627 55.2388L56.2146 58.4465H52.5107L54.3627 55.2388Z" fill="white"/>
<path d="M56.2146 58.4465L54.3626 55.2388L58.0665 55.2388L56.2146 58.4465Z" fill="white"/>
<path d="M52.5107 58.4465L50.6588 55.2388L54.3626 55.2388L52.5107 58.4465Z" fill="white"/>
<path d="M54.3626 61.6541L52.5107 58.4464L56.2145 58.4464L54.3626 61.6541Z" fill="white"/>
<path d="M39.5472 55.2388L41.3991 58.4465H37.6953L39.5472 55.2388Z" fill="white"/>
<path d="M41.3991 58.4465L39.5472 55.2388L43.2511 55.2388L41.3991 58.4465Z" fill="white"/>
<path d="M37.6952 58.4465L35.8433 55.2388L39.5471 55.2388L37.6952 58.4465Z" fill="white"/>
<path d="M39.5472 61.6541L37.6952 58.4464L41.3991 58.4464L39.5472 61.6541Z" fill="white"/>
<path d="M54.3626 68.0695L52.5107 64.8619L56.2146 64.8619L54.3626 68.0695Z" fill="white"/>
<path d="M52.5107 64.8619L54.3627 68.0696L50.6588 68.0696L52.5107 64.8619Z" fill="white"/>
<path d="M56.2146 64.8619L58.0665 68.0696L54.3627 68.0696L56.2146 64.8619Z" fill="white"/>
<path d="M54.3627 61.6543L56.2146 64.8619L52.5108 64.8619L54.3627 61.6543Z" fill="white"/>
<path d="M61.7704 68.0711L63.6223 71.2787H59.9185L61.7704 68.0711Z" fill="white"/>
<path d="M63.6223 71.2787L61.7703 68.0711L65.4742 68.0711L63.6223 71.2787Z" fill="white"/>
<path d="M59.9184 71.2787L58.0665 68.0711L61.7704 68.0711L59.9184 71.2787Z" fill="white"/>
<path d="M61.7704 74.4863L59.9185 71.2787L63.6223 71.2787L61.7704 74.4863Z" fill="white"/>
<path d="M61.7704 55.2388L63.6223 58.4465H59.9184L61.7704 55.2388Z" fill="white"/>
<path d="M63.6222 58.4465L61.7703 55.2388L65.4742 55.2388L63.6222 58.4465Z" fill="white"/>
<path d="M59.9184 58.4465L58.0665 55.2388L61.7703 55.2388L59.9184 58.4465Z" fill="white"/>
<path d="M61.7703 61.6541L59.9184 58.4464L63.6223 58.4464L61.7703 61.6541Z" fill="white"/>
<path d="M46.9549 55.2388L48.8068 58.4465H45.1029L46.9549 55.2388Z" fill="white"/>
<path d="M48.8068 58.4465L46.9549 55.2388L50.6587 55.2388L48.8068 58.4465Z" fill="white"/>
<path d="M45.1029 58.4465L43.251 55.2388L46.9548 55.2388L45.1029 58.4465Z" fill="white"/>
<path d="M46.9549 61.6541L45.1029 58.4464L48.8068 58.4464L46.9549 61.6541Z" fill="white"/>
<path d="M46.9549 68.0695L45.103 64.8619L48.8069 64.8619L46.9549 68.0695Z" fill="white"/>
<path d="M45.1031 64.8619L46.955 68.0696L43.2511 68.0696L45.1031 64.8619Z" fill="white"/>
<path d="M48.8069 64.8619L50.6588 68.0696L46.955 68.0696L48.8069 64.8619Z" fill="white"/>
<path d="M46.9549 61.6543L48.8069 64.8619L45.103 64.8619L46.9549 61.6543Z" fill="white"/>
<path d="M50.6584 74.4866L52.5103 77.6942H48.8064L50.6584 74.4866Z" fill="white"/>
<path d="M52.5103 77.6942L50.6583 74.4866L54.3622 74.4866L52.5103 77.6942Z" fill="white"/>
<path d="M48.8064 77.6942L46.9545 74.4866L50.6584 74.4866L48.8064 77.6942Z" fill="white"/>
<path d="M50.6584 80.9018L48.8065 77.6942L52.5103 77.6942L50.6584 80.9018Z" fill="white"/>
<path d="M58.0662 61.6543L59.9181 64.8619H56.2143L58.0662 61.6543Z" fill="white"/>
<path d="M59.9181 64.862L58.0662 61.6544L61.7701 61.6544L59.9181 64.862Z" fill="white"/>
<path d="M56.2143 64.862L54.3624 61.6544L58.0662 61.6544L56.2143 64.862Z" fill="white"/>
<path d="M58.0663 68.0695L56.2143 64.8619L59.9182 64.8619L58.0663 68.0695Z" fill="white"/>
<path d="M43.2508 61.6543L45.1027 64.8619H41.3988L43.2508 61.6543Z" fill="white"/>
<path d="M45.1027 64.862L43.2508 61.6544L46.9547 61.6544L45.1027 64.862Z" fill="white"/>
<path d="M41.3988 64.862L39.5469 61.6544L43.2508 61.6544L41.3988 64.862Z" fill="white"/>
<path d="M43.2508 68.0695L41.3989 64.8619L45.1027 64.8619L43.2508 68.0695Z" fill="white"/>
<path d="M50.6591 61.6541L48.8072 58.4464L52.511 58.4464L50.6591 61.6541Z" fill="white"/>
<path d="M48.8071 58.4464L50.6591 61.654L46.9552 61.654L48.8071 58.4464Z" fill="white"/>
<path d="M52.511 58.4464L54.3629 61.654L50.6591 61.654L52.511 58.4464Z" fill="white"/>
<path d="M50.659 55.2388L52.511 58.4465L48.8071 58.4465L50.659 55.2388Z" fill="white"/>
<path d="M97.2275 80.902L99.0794 84.1097H95.3756L97.2275 80.902Z" fill="white"/>
<path d="M99.0795 84.1096L97.2275 80.902L100.931 80.902L99.0795 84.1096Z" fill="white"/>
<path d="M95.3756 84.1096L93.5237 80.902L97.2275 80.902L95.3756 84.1096Z" fill="white"/>
<path d="M97.2275 87.3173L95.3756 84.1096L99.0795 84.1096L97.2275 87.3173Z" fill="white"/>
<path d="M108.338 74.485L110.19 77.6927H106.486L108.338 74.485Z" fill="white"/>
<path d="M110.19 77.6927L108.338 74.4851L112.042 74.4851L110.19 77.6927Z" fill="white"/>
<path d="M106.486 77.6927L104.634 74.4851L108.338 74.4851L106.486 77.6927Z" fill="white"/>
<path d="M108.338 80.9003L106.486 77.6926L110.19 77.6926L108.338 80.9003Z" fill="white"/>
<path d="M75.0053 87.3187L76.8571 90.5265H73.1535L75.0053 87.3187Z" fill="white"/>
<path d="M76.8571 90.5266L75.0053 87.3187L78.7089 87.3187L76.8571 90.5266Z" fill="white"/>
<path d="M69.448 90.5266L67.5962 87.3187L71.2998 87.3187L69.448 90.5266Z" fill="white"/>
<path d="M71.2998 93.7344L69.448 90.5265L73.1516 90.5265L71.2998 93.7344Z" fill="white"/>
<path d="M100.931 68.0694L99.0793 64.8618L102.783 64.8618L100.931 68.0694Z" fill="white"/>
<path d="M99.0793 64.8617L100.931 68.0693L97.2273 68.0693L99.0793 64.8617Z" fill="white"/>
<path d="M102.783 64.8617L104.635 68.0693L100.931 68.0693L102.783 64.8617Z" fill="white"/>
<path d="M100.931 61.6541L102.783 64.8617L99.0793 64.8617L100.931 61.6541Z" fill="white"/>
<path d="M104.635 61.6561L106.487 64.8637H102.783L104.635 61.6561Z" fill="white"/>
<path d="M106.487 64.8638L104.635 61.6561L108.339 61.6561L106.487 64.8638Z" fill="white"/>
<path d="M102.783 64.8638L100.931 61.6561L104.635 61.6561L102.783 64.8638Z" fill="white"/>
<path d="M104.635 68.0713L102.783 64.8637L106.487 64.8637L104.635 68.0713Z" fill="white"/>
<path d="M108.339 55.2408L110.191 58.4484H106.487L108.339 55.2408Z" fill="white"/>
<path d="M110.191 58.4485L108.339 55.2409L112.043 55.2409L110.191 58.4485Z" fill="white"/>
<path d="M106.487 58.4485L104.635 55.2409L108.339 55.2409L106.487 58.4485Z" fill="white"/>
<path d="M108.339 61.6561L106.487 58.4484L110.191 58.4484L108.339 61.6561Z" fill="white"/>
<path d="M82.4156 100.149L84.2675 103.357H80.5636L82.4156 100.149Z" fill="white"/>
<path d="M84.2675 103.357L82.4156 100.149L86.1194 100.149L84.2675 103.357Z" fill="white"/>
<path d="M80.5636 103.357L78.7117 100.149L82.4156 100.149L80.5636 103.357Z" fill="white"/>
<path d="M82.4156 106.565L80.5637 103.357L84.2675 103.357L82.4156 106.565Z" fill="white"/>
<path d="M86.1196 93.7341L87.9715 96.9418H84.2677L86.1196 93.7341Z" fill="white"/>
<path d="M87.9715 96.9418L86.1196 93.7342L89.8235 93.7342L87.9715 96.9418Z" fill="white"/>
<path d="M84.2677 96.9418L82.4158 93.7342L86.1196 93.7342L84.2677 96.9418Z" fill="white"/>
<path d="M86.1196 100.149L84.2677 96.9418L87.9716 96.9418L86.1196 100.149Z" fill="white"/>
<path d="M95.3757 64.8635L99.0795 64.8635L97.2276 68.0712L95.3757 64.8635Z" fill="white"/>
<path d="M97.2276 68.0712L93.5238 68.0712L95.3757 64.8635L97.2276 68.0712Z" fill="white"/>
<path d="M112.044 48.8236L115.748 48.8236L113.896 52.0312L112.044 48.8236Z" fill="white"/>
<path d="M113.896 52.0312L110.193 52.0312L112.044 48.8236L113.896 52.0312Z" fill="white"/>
<path d="M108.341 48.8236L112.045 48.8236L110.193 52.0312L108.341 48.8236Z" fill="white"/>
<path d="M110.193 52.0312L106.489 52.0312L108.341 48.8236L110.193 52.0312Z" fill="white"/>
<path d="M110.194 52.0313L113.898 52.0313L112.046 55.2389L110.194 52.0313Z" fill="white"/>
<path d="M112.046 55.2389L108.342 55.2389L110.194 52.0313L112.046 55.2389Z" fill="white"/>
<path d="M106.491 52.0313L110.194 52.0313L108.343 55.2389L106.491 52.0313Z" fill="white"/>
<path d="M108.343 55.2389L104.639 55.2389L106.491 52.0313L108.343 55.2389Z" fill="white"/>
<path d="M87.9701 19.9587L91.6739 19.9587L89.822 23.1663L87.9701 19.9587Z" fill="white"/>
<path d="M89.8221 23.1663L86.1182 23.1663L87.9701 19.9587L89.8221 23.1663Z" fill="white"/>
</g>
<defs>
<clipPath id="clip0_164_4213">
<rect width="115" height="115" fill="white" transform="translate(0.960602 0.713196)"/>
</clipPath>
</defs>
</svg>
